<svg width="16" height="16" fill="none" xmlns="http://www.w3.org/2000/svg"><path d="M8 0C3.603 0 0 3.603 0 8s3.603 8 8 8 8-3.603 8-8-3.603-8-8-8zm-.615 1.492v5.893h-2.4c.077-1.69.404-3.238.944-4.326.434-.874.944-1.32 1.456-1.567zm1.23 0c.512.247 1.022.693 1.456 1.567.54 1.088.867 2.636.945 4.326h-2.4V1.492zm-3.403.35a7.006 7.006 0 00-.385.669c-.646 1.302-.998 3.015-1.073 4.874H1.262c.225-2.468 1.786-4.557 3.95-5.544zm5.577 0c2.163.986 3.724 3.075 3.949 5.543h-2.492c-.075-1.859-.427-3.572-1.073-4.874a7.017 7.017 0 00-.384-.67zM1.262 8.614h2.492c.075 1.859.427 3.572 1.073 4.874.117.236.248.457.385.67-2.164-.987-3.725-3.076-3.95-5.544zm3.722 0h2.4v5.893c-.511-.247-1.021-.693-1.455-1.567-.54-1.088-.867-2.636-.945-4.326zm3.631 0h2.4c-.077 1.69-.404 3.238-.944 4.326-.434.874-.944 1.32-1.456 1.567V8.615zm3.631 0h2.492c-.225 2.468-1.786 4.557-3.95 5.544.137-.213.268-.434.385-.67.646-1.302.998-3.015 1.073-4.874z" fill="#000"/></svg>