<svg width="1920" height="785" fill="none" xmlns="http://www.w3.org/2000/svg"><g clip-path="url(#clip0)"><path d="M1995.99 785L552 773.264V0h1502l-58.01 785z" fill="url(#paint0_linear)"/><path d="M1301.18 775.041c81.12 0 146.88-65.765 146.88-146.89 0-81.125-65.76-146.889-146.88-146.889-81.12 0-146.87 65.764-146.87 146.889 0 81.125 65.75 146.89 146.87 146.89z" fill="#ADE4F3"/><path d="M1102.41 600.238a2.68 2.68 0 01-5.28.908 2.682 2.682 0 013.1-3.095c1.11.182 2 1.076 2.18 2.187zm17.65.001a2.683 2.683 0 01-3.1 3.095 2.666 2.666 0 01-2.18-2.188 2.68 2.68 0 013.09-3.095 2.675 2.675 0 012.19 2.188zm17.64 0a2.68 2.68 0 01-3.09 3.095 2.677 2.677 0 01-2.19-2.188 2.683 2.683 0 013.1-3.095c1.11.182 2 1.076 2.18 2.188zm17.65 0a2.68 2.68 0 01-3.09 3.095 2.665 2.665 0 01-2.19-2.188 2.68 2.68 0 013.09-3.095 2.675 2.675 0 012.19 2.188zm17.65-.001a2.686 2.686 0 01-3.1 3.095 2.687 2.687 0 01-2.19-2.187 2.682 2.682 0 013.1-3.095c1.11.182 2 1.076 2.19 2.187zm-70.59 14.565a2.678 2.678 0 11-5.28.907 2.683 2.683 0 013.1-3.095c1.11.182 2 1.08 2.18 2.188zm17.65 0a2.682 2.682 0 01-3.1 3.095 2.668 2.668 0 01-2.18-2.188 2.68 2.68 0 013.09-3.095 2.677 2.677 0 012.19 2.188zm17.64 0a2.678 2.678 0 11-5.28.907 2.683 2.683 0 013.1-3.095c1.1.182 2 1.077 2.18 2.188zm17.65 0a2.678 2.678 0 01-3.09 3.095 2.667 2.667 0 01-2.19-2.188 2.68 2.68 0 013.09-3.095 2.677 2.677 0 012.19 2.188zm17.65 0a2.687 2.687 0 01-3.1 3.095 2.687 2.687 0 01-2.19-2.188 2.683 2.683 0 015.29-.907zm-70.59 14.569a2.68 2.68 0 11-2.18-2.188c1.11.182 2 1.076 2.18 2.188zm17.65-.001a2.686 2.686 0 01-3.1 3.099 2.67 2.67 0 01-2.18-2.188 2.68 2.68 0 013.09-3.095 2.668 2.668 0 012.19 2.184zm17.64 0a2.683 2.683 0 01-3.09 3.099 2.681 2.681 0 01-2.19-2.188 2.683 2.683 0 013.1-3.095c1.1.178 2 1.073 2.18 2.184zm17.65 0a2.683 2.683 0 01-3.09 3.099 2.67 2.67 0 01-2.19-2.188 2.68 2.68 0 013.09-3.095 2.668 2.668 0 012.19 2.184zm17.65.001a2.687 2.687 0 01-3.1 3.095 2.688 2.688 0 01-2.19-2.188 2.683 2.683 0 015.29-.907z" stroke="#1A1A1A" stroke-width=".709" stroke-miterlimit="10"/><path d="M1456.88 476.612a4.446 4.446 0 01-5.13 5.133c-1.84-.304-3.33-1.786-3.63-3.629a4.445 4.445 0 015.13-5.132 4.431 4.431 0 013.63 3.628zm29.26-.001a4.456 4.456 0 01-5.14 5.133 4.43 4.43 0 01-3.62-3.629 4.445 4.445 0 015.13-5.132c1.84.3 3.33 1.785 3.63 3.628zm29.25 0a4.446 4.446 0 01-5.13 5.133c-1.84-.304-3.33-1.786-3.63-3.629a4.445 4.445 0 015.13-5.132c1.85.3 3.33 1.785 3.63 3.628zm29.26 0a4.446 4.446 0 01-5.13 5.133c-1.84-.304-3.33-1.786-3.63-3.629a4.445 4.445 0 018.76-1.504zm29.25 0a4.446 4.446 0 01-5.13 5.133c-1.84-.301-3.32-1.786-3.63-3.629a4.448 4.448 0 015.14-5.133 4.434 4.434 0 013.62 3.629zm-117.02 24.149a4.445 4.445 0 01-8.76 1.505 4.446 4.446 0 015.13-5.133 4.433 4.433 0 013.63 3.628zm29.26 0a4.455 4.455 0 01-5.14 5.133 4.432 4.432 0 01-3.62-3.628 4.446 4.446 0 015.13-5.133c1.84.303 3.32 1.789 3.63 3.628zm29.25 0a4.444 4.444 0 01-5.13 5.133c-1.84-.303-3.33-1.788-3.63-3.628a4.446 4.446 0 015.13-5.133 4.433 4.433 0 013.63 3.628zm29.26 0a4.444 4.444 0 01-5.13 5.133c-1.84-.303-3.33-1.788-3.63-3.628a4.446 4.446 0 015.13-5.133c1.84.303 3.32 1.789 3.63 3.628zm29.25 0a4.445 4.445 0 01-5.13 5.133c-1.84-.303-3.32-1.785-3.63-3.628a4.449 4.449 0 015.14-5.133c1.83.303 3.32 1.789 3.62 3.628zm-117.02 24.154a4.446 4.446 0 01-5.13 5.133 4.446 4.446 0 011.5-8.762 4.43 4.43 0 013.63 3.629zm29.26-.003a4.451 4.451 0 01-5.14 5.133 4.434 4.434 0 01-3.62-3.629 4.446 4.446 0 015.13-5.133c1.84.304 3.32 1.789 3.63 3.629zm29.25 0a4.445 4.445 0 11-3.63-3.629 4.434 4.434 0 013.63 3.629zm29.26 0a4.445 4.445 0 11-3.63-3.629c1.84.304 3.32 1.789 3.63 3.629zm29.25.003a4.446 4.446 0 01-5.13 5.133c-1.84-.304-3.32-1.786-3.63-3.629a4.449 4.449 0 015.14-5.133c1.83.304 3.32 1.786 3.62 3.629z" stroke="#1A1A1A" stroke-width="1.175" stroke-miterlimit="10"/><path opacity=".3" d="M1157.9 474.979H977.911v17.132H1157.9v-17.132z" fill="#BCEBF5"/><path opacity=".3" d="M1060.25 414.155h-32.13v60.827h32.13v-60.827zm-34.12 0h-32.125v9.704h32.125v-9.704zm121.92 39.408h-65.96v21.416h65.96v-21.416z" fill="#BCEBF5"/><path d="M1174.12 557.001h-133.58v12.169h133.58v-12.169z" fill="#BCEBF5"/><path d="M1080.8 577.095h-21.84l-4.71-31.656h31.65l-5.1 31.656zm-3.42 51.443h-12.85l2.57-51.443h6.42l3.86 51.443zm64.67-94.665s-13.7 32.981-13.7 47.118c0 0 5.14.47 6.85 2.805v31.461h6.85v-81.384z" fill="#BCEBF5"/><path opacity=".3" d="M1028.12 438.545v-.402h-22.7v.402l-6.424 6.024v30.41h35.554v-30.41l-6.43-6.024zm-29.236-8.113h-32.122v7.71h32.122v-7.71z" fill="#BCEBF5"/><path opacity=".3" d="M1160.82 473.034H980.833v17.133h179.987v-17.133zm-97.66-60.827h-32.12v60.827h32.12v-60.827zm-34.11 0h-32.126v9.703h32.126v-9.703zm121.92 39.408h-65.96v21.416h65.96v-21.416z" fill="#fff"/><path d="M1177.04 555.057h-133.58v12.169h133.58v-12.169z" fill="#fff"/><path d="M1083.72 575.146h-21.84l-4.71-31.656h31.65l-5.1 31.656zm-3.42 51.443h-12.85l2.57-51.443h6.42l3.86 51.443zm64.67-94.664s-13.7 32.981-13.7 47.118c0 0 5.14.469 6.85 2.804v31.461h6.86v-81.383h-.01z" fill="#fff"/><path opacity=".3" d="M1031.04 436.597v-.403h-22.7v.403l-6.42 6.024v30.413h35.55v-30.413l-6.43-6.024zm-29.24-8.114h-32.119v7.711h32.119v-7.711z" fill="#fff"/><path d="M1464.47 465.156c18.46 0 33.43-14.967 33.43-33.431s-14.97-33.432-33.43-33.432-33.43 14.968-33.43 33.432c0 18.464 14.97 33.431 33.43 33.431z" fill="#BCEBF5"/><path d="M1467.85 461.199c17.1 0 30.96-13.864 30.96-30.966s-13.86-30.966-30.96-30.966-30.97 13.864-30.97 30.966 13.87 30.966 30.97 30.966z" fill="#BCEBF5" stroke="#fff" stroke-width="16.257" stroke-miterlimit="10"/><path d="M1467.85 407.393v22.84h12.99" stroke="#fff" stroke-width="10.161" stroke-miterlimit="10" stroke-linecap="round"/><path d="M1216 531.829s48.51 3.258 60.6 10.617v34.514l-39.59 5.75s-27.39-18.452-27.39-19.03c0-.578 2.92-25.198 2.92-25.198l3.46-6.653zm9.78 189.763l-.77.039-24.6 1.239-2.99-42.442-.18-2.581 24.03-4.73 1.77-.348.8 14.36 1.94 34.463z" fill="#237C82"/><path d="M1312.26 724.662l-32.94-1.14-43.11-1.492h-.01l-11.52-.399-1.12-.038V699.1c-8.18-4.858-3.07-6.391-3.07-6.391-2.04-2.047-1.36-4.73-1.36-4.73v-4.328l1.81-10.531.06-.348 35.17-1.645 44.62-2.089 7.61-.357.72 10.492 3.14 45.489z" fill="#fff"/><path d="M1312.58 724.662l-32.93-1.14-43.12-1.492-11.52-.399-1.13-.038V699.1c-8.18-4.858-3.06-6.391-3.06-6.391-2.05-2.047-1.37-4.73-1.37-4.73v-4.328l1.82-10.531.06-.348 35.16-1.645 44.63-2.089 7.61-.357.72 10.492 3.13 45.489z" fill="#EAE9E8"/><path d="M2002 784l-1450-.254V728l1438.36 3.66 5.99 26.959 1.55 6.968L2002 784z" fill="url(#paint1_linear)"/><g opacity=".4" fill="#FFB319"><path opacity=".5" d="M948.756 722.864c21.123 3.239 40.289-8.534 58.974-16.449 10.79-4.568 21.86-7.675 33.62-8.241 12.44-.597 24.88 1.182 37 3.903 12.06 2.706 23.88 6.353 35.72 9.879a1100.358 1100.358 0 00110.82 26.881 1104.17 1104.17 0 0083.81 12.473c-.04-.319-.09-.639-.13-.955-26.13 5.458-52.6 9.585-79.3 10.725-25.46 1.086-51.11-.59-75.99-6.298-12.13-2.782-24.05-6.516-35.54-11.317-11.27-4.714-21.8-11.377-33.46-15.139-9.19-2.961-22.75-4.44-29.87 3.746-2.85 3.281-3.98 8.372-1.65 12.249 1.21 2.006 3.11 3.504 4.28 5.532 1.9 3.316-.73 5.497-3.84 6.19-6.05 1.352-12.58 1.47-18.76 1.47-6.41-.003-12.8-.4-19.18-.885-12.76-.968-25.557-2.319-38.364-1.571-2.948.172-5.886.466-8.812.875-.616.086-.354 1.025.259.939 25.588-3.568 51.177 3.363 76.807 1.191 2.83-.239 5.78-.466 8.55-1.134 1.74-.418 3.65-1.198 4.53-2.868 2.16-4.088-3.08-7.378-4.76-10.46-3.19-5.839 1.39-12.067 6.66-14.495 5.5-2.526 12.03-2.536 17.87-1.408 12.14 2.347 22.84 9.269 33.96 14.309 11.18 5.062 22.81 9.09 34.68 12.166 24.19 6.266 49.28 8.608 74.23 8.148 26.33-.489 52.52-4.034 78.34-9.071 3.21-.626 6.41-1.278 9.62-1.945.57-.122.37-.901-.14-.955a1104.498 1104.498 0 01-75.36-10.927 1101.778 1101.778 0 01-110.7-25.948c-11.81-3.421-23.53-7.158-35.43-10.237-22.99-5.951-47.21-9.237-70.17-1.431-19.806 6.726-38.413 20.253-59.932 20.675a47.299 47.299 0 01-8.09-.543c-.607-.109-.869.83-.252.926z"/><path opacity=".5" d="M960.863 776.383l50.787 3.018c7.52.447 15.29 1.485 22.81.693 6.22-.655 11.72-3.155 15.59-8.17 3.95-5.126 5.74-11.377 8.51-17.13.96-1.996 2.63-3.44 4.86-2.232 1.57.853 2.7 2.437 3.43 4.031 1.05 2.299 1.83 4.985 3.94 6.579 2.61 1.968 5.57.623 8.21-.511 3.64-1.568 7.49-2.568 11.41-3.175 3.86-.597 7.77-.817 11.66-.919 3.41-.087 6.98-.371 10.36.201 3.01.511 7.29 2.287 6.27 6.148-1.07 4.082-6.25 4.721-9.7 4.373-3.64-.367-7.45-1.418-10.96.147-2.53 1.127-4.66 3.421-4.32 6.346.08.614 1.05.623.98 0-.46-3.874 3.75-6.087 7.09-6.212 3.74-.141 7.46 1.281 11.19.687 2.52-.4 5.24-1.84 6.35-4.236.9-1.932.45-4.222-1.04-5.723-1.74-1.744-4.39-2.361-6.75-2.632-3.4-.39-6.93-.154-10.33-.048-7.53.23-15.18 1.025-22.17 3.973-1.99.84-4.28 2.198-6.5 1.431-1.64-.568-2.63-2.117-3.38-3.593-1.31-2.597-2.05-5.395-4.5-7.219-6-4.471-8.51 5.81-10.17 9.637-2.68 6.203-6.07 12.498-12.53 15.389-7.02 3.139-15.25 2.088-22.68 1.648-19.472-1.157-38.941-2.316-58.41-3.472-.633-.039-.633.936-.007.971zm2.68-39.935c13.545-4.695 24.106-15.057 37.397-20.26 3.2-1.252 6.81-2.22 10.26-1.558 3.99.766 6.36 3.864 7.68 7.506 1.34 3.711 1.87 7.745 1.67 11.68-.05 1.166-.04 2.629-.87 3.568-.68.76-1.77 1.06-2.72 1.297-1.86.46-3.81.696-5.73.562-4.26-.294-9.08-3.188-9.07-7.985 0-2.29 2.31-5.887 4.76-3.405 1.09 1.102 1.59 2.533 2.88 3.472.51.37.99-.476.49-.84-1.4-1.019-1.87-2.881-3.31-3.859-1.19-.808-2.61-.683-3.75.16-2.89 2.137-2.36 6.363-.53 8.998 2.23 3.226 6.07 4.529 9.87 4.462 3.41-.058 8.21-.569 8.81-4.644.63-4.344-.01-9.103-1.39-13.243-1.2-3.564-3.27-6.889-6.95-8.231-3.68-1.344-7.88-.511-11.45.776-4.049 1.46-7.882 3.527-11.574 5.721-8.767 5.209-17 11.511-26.728 14.884-.591.204-.339 1.147.255.939zm142.537-13.958c6.39 6.605 14.24 11.53 22.68 15.098 4.34 1.833 8.81 3.325 13.35 4.552 4.48 1.207 9.14 2.402 13.76 2.858 4.4.435 9.62-.853 11.04-5.592.19-.601-.75-.86-.93-.259-2.05 6.8-10.9 4.912-16.01 3.855-5.27-1.089-10.49-2.472-15.57-4.264-10.29-3.635-20-9.046-27.64-16.935-.43-.45-1.12.237-.68.687zm278.27-2.229c.59 2.769 2.92 4.373 5.4 5.401 3.26 1.355 6.84 2.108 10.25 2.955a205.581 205.581 0 0049.16 6.008c7.67.006 15.59-.134 23.17-1.374 5.66-.923 12.36-3.254 13.95-9.444.09-.32-.15-.601-.47-.617-7.26-.383-14.53-.469-21.79-.265-.63.019-.63.99 0 .974 7.26-.204 14.53-.118 21.79.265-.15-.204-.31-.412-.47-.616-1.46 5.688-7.66 7.787-12.84 8.691-7.03 1.226-14.4 1.345-21.51 1.405a204.36 204.36 0 01-45.4-4.724c-4.15-.91-8.28-1.948-12.37-3.12-3.13-.901-7.16-2.175-7.93-5.798-.13-.61-1.07-.351-.94.259z"/><path opacity=".5" d="M1518.21 720.031c6.29 1.542 17.4 6.477 12.81 14.877-2.34 4.277-7.26 5.868-11.83 6.197-4.76.345-9.62-.023-14.39-.045a544.97 544.97 0 00-62.21 3.248c-9.65 1.061-20.72 1.457-28.79 7.513-.4.297-.25.856.25.907 20.02 2.105 40.09 4.206 60.25 4.347 10.09.07 20.15-.15 30.1 1.814 9.62 1.901 18.99 4.67 28.73 6.024 10.84 1.508 21.79 2.044 32.71 2.568.63.029.63-.942 0-.974-9.86-.476-19.73-.949-29.53-2.153-9.95-1.22-19.5-3.782-29.27-5.909-9.6-2.089-19.23-2.325-29.01-2.335-10.06-.009-20.1-.415-30.13-1.156-11.3-.834-22.58-2.019-33.85-3.204l.24.908c8.09-6.066 19.26-6.398 28.92-7.449a546.936 546.936 0 0133.27-2.587 542.56 542.56 0 0133.36-.546c7.7.108 19.33 1.076 22.63-8.017 3.13-8.656-7.44-13.364-14-14.974-.61-.144-.87.796-.26.946z"/><path opacity=".4" d="M1554.24 721.714c-1.33 1.22-2.38 2.641-3.26 4.207-.77 1.379-1.78 3.059-2.18 4.599-.23.856.04 1.67.48 2.411 1.21 2.029 3.29 3.466 4.91 5.14.6.619 1.54 1.488 1.65 2.405.12.993-.9 1.459-1.69 1.76-2.13.814-4.55.974-6.8 1.137-3.66.265-7.65-.307-11.1 1.095-1.71.69-3.27 1.664-4.9 2.491-2.2 1.112-4.47 1.559-6.87 2.032a174.032 174.032 0 01-16.23 2.389c-.62.061-.63 1.035 0 .974 4.6-.46 9.18-1.086 13.73-1.903 2.2-.393 4.44-.745 6.6-1.329 1.77-.482 3.39-1.377 5-2.246 1.64-.888 3.33-1.827 5.19-2.156 2.18-.383 4.55-.15 6.77-.261 2.61-.131 5.3-.291 7.84-.962 1.91-.508 4.26-1.68 3.14-4.002-.98-2.044-3.16-3.513-4.73-5.082-.78-.776-1.91-1.807-2.08-2.96-.17-1.083.71-2.246 1.15-3.166 1.04-2.184 2.27-4.238 4.07-5.889.46-.419-.23-1.106-.69-.684z"/><path opacity=".5" d="M1272.5 720.443a298.006 298.006 0 0042.85 9.934c7.1 1.095 14.23 1.938 21.39 2.52 7.02.571 14.06.728 21.09 1.182 6.8.437 13.65 1.258 20.1 3.535 2.58.907 7.34 2.415 7.7 5.714.39 3.597-5.75 5.082-8.31 5.855-12.6 3.795-25.9 1.77-38.76 3.597-11.21 1.593-23.45 6.311-28.45 17.273-.15.329.02.731.42.731 17.98.122 35.97.134 53.94.412 17.44.272 34.93.978 52.21 3.523 9.71 1.431 19.33 3.462 28.74 6.264.6.179.85-.761.25-.939-33.64-10.014-69.08-9.793-103.85-10.026l-31.29-.211.42.731c4.9-10.744 16.89-15.277 27.86-16.826 13.31-1.878 27.14.348 40.09-4.018 2.42-.814 5.83-1.792 7.21-4.143 1.19-2.015.16-4.19-1.44-5.602-2.15-1.9-5.12-2.865-7.81-3.727-3.39-1.086-6.89-1.795-10.42-2.287-6.81-.946-13.69-1.077-20.55-1.418a295.827 295.827 0 01-22.54-1.997c-17.15-2.181-34.09-5.896-50.6-11.022-.6-.182-.85.76-.25.945z"/></g><path d="M1291.53 694.271a52.051 52.051 0 01-5.03 2.341c-.85.361-1.72.671-2.59 1-.87.309-1.74.606-2.62.894-.88.278-1.77.536-2.66.786-.9.23-1.79.472-2.7.654-1.81.393-3.66.674-5.52.716l-.01-.064c1.82-.259 3.62-.68 5.4-1.147 1.78-.463 3.54-1.003 5.29-1.565a158.6 158.6 0 005.24-1.756c1.73-.617 3.46-1.249 5.18-1.92l.02.061z" fill="#EAE9E8"/><path d="M1224.54 527.271l-9.49 9.506v19.314l26.22 13.754 25.56-2.313 5.96-12.993-13.5-16.172-34.75-11.096z" fill="#FF936D"/><path d="M1268.5 504.815c0 14.708-14.37 47.191-25.28 47.191-10.91 0-24.55-21.917-24.55-36.625 0-14.709 13.63-16.638 24.55-16.638 10.91 0 25.28-8.637 25.28 6.072z" fill="#FF936D"/><path d="M1270.66 504.058c0 4.408-1.29 10.412-3.39 16.66-1.58 4.689-3.61 9.515-5.9 13.91-4.83 9.282-10.8 16.622-15.99 16.622-6.75 0-16.09-7.848-22.23-17.315-1.64-2.514-3.04-5.143-4.11-7.774-1.42-3.469-2.25-6.931-2.25-10.125 0-14.709 17.68-18.05 28.59-18.05s25.28-8.636 25.28 6.072z" fill="#FF936D"/><path d="M1280.95 495.998c-.06 4.801-1.74 9.675-5.33 13.808-3.73 4.28-6.55 4.871-6.55 4.871.08-.137.15-.275.2-.418 2.51-6.257-19.57-16.632-19.57-16.632 1.17 26.057-33.84 12.99-33.84 12.99a9.445 9.445 0 01-3.57-3.379c-4.17-6.752-.05-17.941-.05-17.941 4.74-11.032 13.55-14.018 20.87-14.357.68-.032 1.34-.041 1.98-.032 5.77.083 10.18 1.62 10.18 1.62 5.58-2.111 10.83-2.654 15.57-2.278.36.026.73.061 1.09.099 4.16.457 7.78 2.006 10.7 4.274 4.43 3.43 7.29 8.509 8.09 13.961.17 1.131.24 2.268.23 3.414z" fill="#5E1212"/><path d="M1235.09 474.912l-4.99 5.746s-17.66 13.827-16.09 23.434l-1.72 3.15c-4.18-6.753-.06-17.941-.06-17.941 5.18-12.045 15.21-14.501 22.86-14.389z" fill="#5E1212"/><path d="M1301.12 669.035l-.19 7.72-10.18 5.746c-9.28-6.634-46.88 7.963-46.88 7.963l-1.77-4.865c-5.92 2.677-12.59 2.546-18.25 1.53a49.717 49.717 0 01-4.4-.99c-5.18-1.405-8.75-3.194-8.75-3.194-5.97-.07-10.27-1-13.27-2.517l-.18-2.581 24.02-4.73.06-.348 79.79-3.734z" fill="#EAE9E8"/><path d="M1190.79 621.182s9.29 1.769 11.06 24.329c0 0-28.75 34.501 8.84 34.945 0 0 17.7 8.848 31.41 2.655l1.77 4.864s37.6-14.597 46.88-7.963l10.17-5.749 3.1-122.085-27.42-9.732s-12.83 24.329-38.48 20.79c0 0-28.75-10.617-22.12-31.407l-46 27.424 20.79 61.929z" fill="#fff"/><path d="M1336.31 692.246l-2.8 6.446c-.62 1.434-2.46 1.859-3.64.84-6.1-5.238-22.78-17.542-34.45-6.89-1.5 1.367-3.9.323-3.9-1.702v-15.568c0-.543-.2-1.07-.54-1.488l-9.33-11.186a2.34 2.34 0 01-.48-2.005c1.68-7.331 10.83-48.46 7.19-58.116a2.245 2.245 0 01-.07-1.284c1.18-5.244 8.5-37.242 13.62-46.6.81-1.473 2.86-1.632 3.88-.304 5.27 6.842 20.38 28.469 18.39 49.124-.01.138-.01.275 0 .412.3 3.389 4.22 48.013.53 61.817-.19.738-.02 1.521.47 2.102 2.84 3.376 12.1 15.101 11.32 23.716-.03.233-.09.466-.19.686zM1170 559.253s-31.55 52.519-33.24 64.816c0 0-3.82 36.891 0 46.217 0 0 33.92-11.447 39-1.696 0 0 5.63-43.432 14.48-49.066 0 .003-.98-50.034-20.24-60.271z" fill="#fff"/><path d="M1177.04 681.313s-20.49 21.243-36.46 20.352c0 .003 15.21-31.736 36.46-20.352z" fill="#7F7F7F"/><path d="M1136.76 670.29l-8.14 10.419a7.034 7.034 0 00-1 6.874l2.93 7.509a6.236 6.236 0 003.19 3.395l6.84 3.182s18.23-29.258 36.46-20.353l2.11-5.267a4.987 4.987 0 00-1.28-5.538l-2.1-1.913c-.01-.004-9.33-19.088-39.01 1.692zm103.25-106.556c-.23.304-.49.559-.76.802l-.42.355c-.14.111-.29.214-.44.319-.15.102-.29.217-.45.31l-.47.281-.47.281c-.16.086-.32.166-.48.249-.33.163-.65.329-.98.479l-1.01.415-.51.208-.51.179-1.03.348c-2.77.875-5.63 1.399-8.49 1.801-.72.093-1.44.151-2.16.227-.72.064-1.44.163-2.16.189l-2.16.124c-.72.048-1.44.077-2.16.077l-2.16.022c-.73.003-1.45.026-2.17-.003-1.44-.029-2.87-.089-4.31-.137l.88-1.045c2.11 9.953 3.81 20.03 6.39 29.89 2.51 9.879 5.6 19.605 8.58 29.33a344.6 344.6 0 004.81 14.466 217.55 217.55 0 002.66 7.123c.92 2.354 1.91 4.679 2.99 6.944 1.1 2.242 2.29 4.487 3.84 6.308.18.236.4.434.61.648.24.243.46.476.69.719.44.479.87.964 1.28 1.463.84.99 1.62 2.028 2.36 3.104.72 1.08 1.4 2.198 1.96 3.383.55 1.182 1.03 2.421 1.26 3.734.04.332.11.654.11.993l.03.498-.02.502-.02.249-.04.249-.07.495c-.04.163-.09.323-.14.485-.05.163-.09.323-.17.473l-.2.46c-.07.15-.17.288-.26.428-.15.294-.38.54-.59.792-.1.131-.23.237-.35.348l-.36.329c-.26.198-.53.377-.79.566l-.12-.16c1.01-.763 1.79-1.789 2.16-2.942.05-.14.08-.29.11-.437.03-.15.07-.294.09-.444l.03-.454.02-.227-.01-.226-.02-.454-.06-.453c-.03-.301-.11-.598-.17-.895-.3-1.185-.81-2.322-1.41-3.405-.61-1.079-1.3-2.12-2.06-3.117a42.143 42.143 0 00-2.41-2.875c-.42-.463-.85-.913-1.3-1.351-.22-.217-.44-.437-.66-.635-.24-.237-.5-.454-.72-.713-1.85-2.002-3.1-4.292-4.32-6.576-2.34-4.615-4.2-9.403-5.89-14.236-1.66-4.842-3.14-9.735-4.56-14.641-2.86-9.809-5.01-19.797-7.45-29.695a636.152 636.152 0 00-3.81-14.82c-1.3-4.935-2.6-9.866-3.69-14.859l-.24-1.079 1.13.035c1.42.045 2.84.073 4.26.134.71.038 1.42.026 2.14.032l2.13.006c.35-.003.71.01 1.07-.003l1.06-.032 2.13-.057c.71-.003 1.41-.08 2.12-.122l2.13-.147 2.11-.223c.35-.042.71-.064 1.06-.121l1.05-.163c.7-.115 1.4-.192 2.09-.352l1.04-.211c.35-.067.7-.14 1.03-.236l1.03-.268.51-.134.5-.163 1.01-.326c.34-.118.66-.262.99-.386.16-.068.33-.128.49-.195l.48-.227.47-.227c.16-.077.31-.172.46-.259.15-.089.31-.172.46-.261l.44-.294c.29-.202.57-.425.8-.671l.16.105z" fill="#237C82"/><path d="M1291.71 691.882s36.73 28.299 40.39 5.327c.04-.274-1.38.134-1.6-.041-3.59-2.942-34.26-32.672-38.79-5.286z" fill="#7F7F7F"/><path d="M1352.46 716.996l10.73 6.388c10.48 8.435-4.35 4.603-4.35 4.603 2.3 5.624-2.56 3.832-2.56 3.832-4.34-4.347-19.74-4.855-19.74-4.855-26.14 4.855-27.82-11.249-27.82-11.249-6.66-4.091-7.65-12.016-7.65-12.016-1.66-1.852-1.5-8.394-1.28-11.846.08-1.307.17-2.176.17-2.176 6.16-4.762 18.85 2.224 20.15 2.968l.11.06-.11 1.597-.48 7.113 12.89 3.048 16.87-2.802 8.69 4.846c8.43 3.066 3.07 6.135 3.07 6.135l4.34 3.067c9.37 8.355-12.59 1.424-13.03 1.287z" fill="#FF936D"/><path d="M1340.42 711.087c.71-.581 1.53-1 2.38-1.329.42-.185.87-.29 1.3-.431.44-.115.89-.204 1.34-.297 1.81-.307 3.66-.271 5.47-.045.92.083 1.81.288 2.71.463.9.192 1.76.502 2.63.77.85.352 1.7.69 2.52 1.08l1.21.642c.39.227.79.441 1.18.674.02.009.02.029.01.044-.01.013-.02.02-.04.013-.43-.143-.86-.31-1.28-.463l-1.26-.495c-.85-.291-1.71-.578-2.55-.882l-1.29-.38c-.43-.124-.85-.29-1.29-.38l-1.3-.326-.32-.079-.34-.055-.66-.108c-1.76-.288-3.57-.387-5.35-.15-.44.073-.89.137-1.33.23-.43.118-.87.201-1.29.364-.85.281-1.69.658-2.41 1.194v.003c-.01.01-.04.007-.05-.006 0-.019 0-.038.01-.051zm2.82 6.385c.75-.236 1.5-.421 2.26-.594.77-.159 1.54-.3 2.31-.396.78-.089 1.56-.22 2.36-.137.78.076 1.59.233 2.29.616.02.01.02.029.01.045 0 .013-.01.019-.03.016-.79-.035-1.54-.042-2.3-.032-.75.013-1.52-.025-2.28.006-.77.032-1.54.106-2.3.198-.77.087-1.54.202-2.3.336-.02.003-.03-.007-.04-.026 0-.009.01-.025.02-.032zm-2.8 7.158c1.59-.227 3.2-.358 4.81-.428 1.61-.054 3.23-.035 4.84.102 1.61.141 3.24.342 4.79.898.77.284 1.52.629 2.21 1.079.69.447 1.32 1.01 1.78 1.683.01.016 0 .036-.01.045-.01.01-.03.007-.04-.003-1.19-1.096-2.65-1.722-4.15-2.191-1.51-.441-3.05-.802-4.64-.997a40.943 40.943 0 00-4.78-.293c-1.6-.02-3.21.028-4.81.169-.02.003-.03-.01-.03-.029 0-.016.01-.032.03-.035zm-24.02-22.994c1.63.425 3.24.927 4.83 1.489 1.58.568 3.15 1.194 4.66 1.961.75.383 1.49.802 2.2 1.278.7.479 1.39 1.006 1.96 1.667.28.329.54.693.73 1.102.19.409.3.869.28 1.332-.01.466-.15.92-.36 1.319-.22.399-.5.754-.8 1.07l-.09.089-.13-.006a38.658 38.658 0 01-4-.374 31.926 31.926 0 01-3.93-.83c-1.29-.368-2.56-.824-3.76-1.447-1.19-.617-2.33-1.405-3.15-2.472-.01-.013-.01-.035.01-.045.01-.01.03-.01.04.003.47.473.99.879 1.55 1.223.55.345 1.13.658 1.73.914.61.259 1.22.485 1.85.69.62.198 1.25.377 1.89.54.64.153 1.28.294 1.93.424.64.131 1.29.23 1.94.339 1.3.204 2.62.371 3.92.457l-.21.083c.56-.556 1.02-1.239 1.06-2 .04-.757-.33-1.504-.85-2.12-.52-.623-1.16-1.154-1.84-1.633-.67-.479-1.39-.904-2.13-1.3-1.47-.785-3.01-1.462-4.57-2.069a59.377 59.377 0 00-4.77-1.623c-.01-.003-.02-.022-.02-.038s.02-.029.03-.023z" fill="#FF936D"/><path d="M1219.46 687.946c1.47.396 2.92.847 4.39 1.262l4.35 1.338c1.45.431 2.89.91 4.34 1.354l4.33 1.38c1.44.473 2.88.926 4.33 1.383l4.33 1.37c1.44.457 2.89.892 4.35 1.288 1.45.418 2.92.801 4.42.977v.064c-1.52-.048-3.02-.38-4.49-.709-1.48-.339-2.95-.728-4.42-1.134-2.92-.815-5.82-1.702-8.71-2.622a551.226 551.226 0 01-17.23-5.893l.01-.058zm1.37 4.731c1.01.383 1.99.817 3 1.213l2.96 1.259 2.96 1.265c.99.425 1.97.853 2.96 1.258.98.425 1.97.834 2.96 1.23.98.409 1.98.789 2.98 1.166 1 .364 2 .721 3.02 1.015 1.02.31 2.05.543 3.13.553l.01.064c-1.08.121-2.16-.061-3.21-.281-1.05-.23-2.09-.534-3.11-.866-2.05-.667-4.05-1.453-6.04-2.284-1.98-.84-3.93-1.734-5.87-2.66-1.94-.926-3.87-1.881-5.78-2.875l.03-.057zm3.07 6.391c1.33.4 2.64.844 3.97 1.246 1.32.434 2.63.862 3.95 1.278 1.33.402 2.63.849 3.96 1.252 1.31.418 2.63.836 3.95 1.226 1.32.409 2.64.795 3.97 1.163 1.33.383 2.66.715 4 1.051 1.33.325 2.68.606 4.04.788 1.35.205 2.73.313 4.09.058l.01.061c-1.34.386-2.76.338-4.13.223-1.39-.128-2.76-.364-4.11-.635-2.72-.556-5.4-1.288-8.06-2.086-2.65-.808-5.28-1.693-7.89-2.622-2.61-.933-5.2-1.907-7.78-2.939l.03-.064z" fill="#EAE9E8"/><path d="M1218.98 511.975l-1.23 10.454-3.74-12.881" fill="#5E1212"/><path d="M1206.3 508.877c-1.29 3.197 3.21 6.58 7.26 7.611 4.04 1.032 8.37-.725 9.66-3.922 1.29-3.197-4.74-9.847-8.78-10.879-4.05-1.028-6.85 3.993-8.14 7.19z" fill="#FF936D"/><path d="M1219.54 514.217s-3.61-7.468-7.4-3.465l7.4 3.465z" fill="#EA8A72"/><path d="M1170 559.254s18.97-5.392 20.24 50.647c0 .003-3.73-42.963-20.24-50.647zm134.02-7.075s-12.9 10.153-15.9 49.842c0 0 9.23-47.099 15.9-49.842z" fill="#EAE9E8"/><path d="M1288.91 597.482l-22.57 4.367 1.44 6.084 20.77-2.686.36-7.765z" fill="#EAE9E8"/><path d="M1289.24 597.156l-22.57 4.366 1.44 5.763 20.77-2.69.36-7.439z" fill="#237C82"/><path d="M1289.24 607.285s-3.12 26.616-8.32 31.704l-3.46 23.591 14.06 11.949-2.28 8.582v-14.434l-8.32-6.867s14.34-45.562 8.32-54.525zm0-55.106s-6.37 29.516 0 44.981v-44.981zm-129 71.214s24.27 17.487 15.52 45.198l-15.52-45.198zm62.51-29.989c2.69 0 4.87-2.176 4.87-4.861a4.865 4.865 0 00-9.73 0 4.863 4.863 0 004.86 4.861zm6.95 27.229c2.69 0 4.86-2.177 4.86-4.862a4.857 4.857 0 00-4.86-4.861 4.864 4.864 0 00-4.86 4.861 4.864 4.864 0 004.86 4.862z" fill="#EAE9E8"/><path d="M1221.78 592.43c2.68 0 4.86-2.177 4.86-4.862a4.863 4.863 0 00-4.86-4.861 4.863 4.863 0 00-4.86 4.861 4.864 4.864 0 004.86 4.862zm6.95 27.228c2.68 0 4.86-2.176 4.86-4.861a4.863 4.863 0 00-4.86-4.861 4.857 4.857 0 00-4.86 4.861 4.857 4.857 0 004.86 4.861z" fill="#237C82"/><path d="M1234.37 527.093a7.701 7.701 0 01-7.7 7.698c-1.26 0-2.47-.31-3.52-.856-1.63-2.514-3.04-5.143-4.11-7.775a7.694 7.694 0 017.64-6.764 7.702 7.702 0 017.69 7.697zm31.26-3.347c-1.58 4.688-3.61 9.515-5.9 13.91a7.704 7.704 0 01-6.1-7.532c0-4.248 3.45-7.694 7.7-7.694 1.59 0 3.07.482 4.3 1.316zm-18-10.088s9.15 16.702 0 19.397v-19.397zm72.49 178.991v1.657c-.41-3.143-15.08-8.017-20.33-2.449.08-1.307.17-2.176.17-2.176 6.16-4.762 18.85 2.223 20.16 2.968z" fill="#FF936D"/><path d="M1269.02 612.9c.15 2.616.24 5.232.37 7.848.11 2.616.21 5.232.28 7.848l-.34-.636c1.19.69 2.49 1.303 3.8 1.805 1.31.504 2.61.958 3.92 1.335 1.31.358 2.64.616 3.92.517.32-.032.64-.079.95-.169.16-.029.3-.093.46-.147.15-.048.29-.124.44-.201.58-.294 1.1-.747 1.58-1.297l.18.093a4.551 4.551 0 01-1.22 1.948c-.15.134-.3.272-.47.38-.17.112-.34.24-.52.323-.36.195-.74.332-1.12.453-.78.237-1.58.294-2.36.285a12.31 12.31 0 01-2.3-.269c-1.5-.313-2.9-.868-4.22-1.546-.67-.335-1.32-.693-1.95-1.066-.64-.374-1.26-.748-1.9-1.173l-.36-.239.02-.396c.07-2.616.17-5.232.28-7.848.12-2.616.22-5.232.37-7.848h.19zm-85.74-188.157c.02-.07.05-.131.08-.201a.89.89 0 00.11.112l-.19.089z" fill="#EAE9E8"/><path d="M1218.7 425.066c.02-.071.05-.131.07-.201.04.038.08.076.12.111l-.19.09zm23.37-2.179c2.83-3.551 3.95-8.179 2.58-12.578-1.65-5.305-6.48-8.837-12.06-9.457-1.05.115-2.1.332-3.15.658-3.78 1.175-6.81 3.555-8.73 6.506a19.21 19.21 0 00-1.67-2.36c-.72.731-1.36 1.523-1.9 2.36-3.25-5.414-8.91-8.895-15.09-9.457-1.35.127-2.7.392-4.04.811-10.38 3.229-16.17 14.258-12.94 24.632.2.658.43 1.297.7 1.913-.01 0-.01 0-.02.004-.62-.125-1.8-.246-1.8-.278-.77.134-4.24.712-4.93.932-8.57 2.664-13.35 11.77-10.69 20.34 2.31 7.439 11.34 14.644 18.79 13.98l24.51 34.569c.02-.064.05-.134.07-.201 1.62-4.236 7.91-10.02 20.48-13.929 14.68-4.571 28.87-4.731 28.87-4.731l-18.98-53.714z" fill="#237C82"/><path d="M1242.07 422.888c2.83-3.552 3.95-8.18 2.58-12.578-1.65-5.305-6.48-8.838-12.06-9.458a16.829 16.829 0 00-5.89 1.786c-2.51 1.3-4.56 3.181-6 5.382a18.132 18.132 0 00-1.66-2.361c-4.09-4.969-10.45-7.7-16.99-7.097-1.35.128-2.7.393-4.05.812-10.37 3.229-16.16 14.258-12.94 24.632.21.658.44 1.297.71 1.913-.01 0-.01 0-.02.003-1.05.112-2.11.326-3.17.652-8.57 2.664-13.35 11.77-10.68 20.339 2.31 7.439 9.47 12.019 16.93 11.355l22.8 37.194c.02-.064.04-.134.07-.201 1.62-4.235 7.91-10.02 20.47-13.929 14.68-4.571 28.88-4.73 28.88-4.73l-18.98-53.714zm-19.72 1.98c.03.035.07.074.11.112l-.19.089c.02-.073.05-.134.08-.201z" fill="#fff"/><path d="M1244.8 496.223s.29 13.673-18.1 13.351m38.93-30.788s21.97 7.966 7.16 27.181" stroke="#fff" stroke-width="1.016" stroke-miterlimit="10"/><path d="M1280.95 495.999c-2.78.144-5.94.221-9.29.221-11.02 0-19.96-.86-19.96-1.923 0-1.061 8.94-1.923 19.96-1.923 3.26 0 6.34.073 9.06.211.17 1.13.24 2.268.23 3.414z" fill="#fff"/><path d="M1192.58 402.638s.13-.012.35-.019l-.35 1.92v-1.901zm68.48 73.964s-14.2.163-28.88 4.73c-12.57 3.91-18.85 9.694-20.47 13.93 3.39-18.577 37.96-23.131 37.96-23.131l-15.11-41.216 2.45-11.358c2.89-16.603-7.88-17.015-9.96-16.941l.03-.169c.75-.368 1.54-.681 2.37-.939 1.04-.329 2.09-.547 3.14-.658 5.59.619 10.41 4.152 12.06 9.457 1.37 4.401.25 9.03-2.58 12.578l18.99 53.717z" fill="#EAE9E8"/><path d="M1217.75 478.867l-1.95-3.035-1.93-3.047-3.85-6.094-3.82-6.117-3.78-6.138c-1.25-2.048-2.56-4.066-3.85-6.095a84.082 84.082 0 01-3.6-6.241c-1.11-2.13-2.18-4.289-3.18-6.487-.99-2.2-1.94-4.424-2.73-6.739a.171.171 0 01.1-.211c.07-.022.14 0 .18.048 1.6 1.849 3.04 3.794 4.44 5.759 1.39 1.97 2.72 3.976 4 6.011a88.64 88.64 0 013.57 6.257c1.1 2.137 2.18 4.286 3.32 6.404l3.39 6.359 3.36 6.382 3.31 6.404 1.66 3.203 1.63 3.217c.05.08.01.179-.07.217-.06.038-.15.01-.2-.057zm16.93-9.401l-1.15-3.418-1.12-3.427-2.25-6.851-2.21-6.864-2.16-6.877c-.71-2.293-1.49-4.57-2.24-6.854a83.853 83.853 0 01-1.96-6.931c-.56-2.338-1.06-4.692-1.5-7.065-.42-2.376-.8-4.766-1-7.203 0-.089.06-.169.15-.178.07-.007.14.032.16.089 1.1 2.185 2.02 4.421 2.9 6.669.87 2.252 1.67 4.523 2.41 6.807a87.484 87.484 0 011.93 6.94c.54 2.341 1.07 4.689 1.65 7.021l1.74 6.994 1.69 7.008 1.65 7.021.82 3.51.8 3.516a.167.167 0 01-.12.195c-.08.023-.16-.025-.19-.102z" fill="#EAE9E8"/><path d="M1336.31 692.246l-2.8 6.445c-.62 1.435-2.46 1.859-3.64.84-6.1-5.238-22.78-17.541-34.45-6.889-1.5 1.367-3.9.323-3.9-1.702v-14.562c0-1.08.74-2.019 1.79-2.264l29.68-6.896c.85-.198 1.74.099 2.31.769 2.97 3.555 11.97 15.076 11.2 23.572a2.4 2.4 0 01-.19.687z" fill="#237C82"/><path d="M1554.71 759.244l-46.52 2.427-114.06-12.009 23.03-5.127h102.25l34.69 5.075.61 9.634zm-301.24 9.073c27.67 0 50.1-6.289 50.1-14.047 0-7.758-22.43-14.047-50.1-14.047s-50.1 6.289-50.1 14.047c0 7.758 22.43 14.047 50.1 14.047zm-216.3-7.946c17.19 0 31.13-3.907 31.13-8.726 0-4.819-13.94-8.726-31.13-8.726-17.19 0-31.12 3.907-31.12 8.726 0 4.819 13.93 8.726 31.12 8.726zm53.63 8.57c13.51 0 24.46-3.07 24.46-6.858 0-3.787-10.95-6.857-24.46-6.857-13.51 0-24.46 3.07-24.46 6.857 0 3.788 10.95 6.858 24.46 6.858zm250.58-13.196c8.28 0 14.99-1.881 14.99-4.203 0-2.321-6.71-4.203-14.99-4.203-8.27 0-14.98 1.882-14.98 4.203 0 2.322 6.71 4.203 14.98 4.203zm34.99 14.33c8.27 0 14.98-1.882 14.98-4.204 0-2.321-6.71-4.203-14.98-4.203-8.28 0-14.99 1.882-14.99 4.203 0 2.322 6.71 4.204 14.99 4.204z" fill="#FFB319"/><path d="M1205.59 759.787c.86.342 1.74.661 2.65.958h.01c.15.048.3.099.45.144 9.62 3.018 22.02 3.548 36.67 2.363 30.66-2.481 57.73-9.285 62.6-30.554.5-2.181.77-4.513.78-7.01 0-.266-.03-.511-.09-.738-1.79-6.762-30.33.974-63.03 3.619-31.16 2.52-56.13-1.24-59.01 4.382-.25.479-.33 1.025-.25 1.648l.06.406v.022c.22 1.507.51 2.948.86 4.318 2.63 10.192 8.92 16.714 18.3 20.442z" fill="#237C82"/><path d="M1198.99 742.232c11.44 2.677 29.56 3.545 49.78 1.91 18.68-1.511 35.25-4.845 46.22-8.879 3.43-1.259 6.31-2.584 8.54-3.945 1.57-.958 2.82-1.932 3.71-2.913 1.13-1.236 1.67-2.482 1.57-3.708-.17-2.198-2.41-4.117-6.27-5.686-10.17-4.136-31.6-5.841-56.12-3.855-16.51 1.335-31.38 4.098-42.19 7.506-3.11.984-5.9 2.022-8.28 3.095-6.28 2.821-9.82 5.88-9.58 8.848.26 3.213 4.93 5.829 12.62 7.627z" fill="#FDFEFE"/><path d="M1198.99 742.233c4.03.942 8.89 1.661 14.37 2.127l.1.009c5.44.457 11.5.662 17.97.588.04 0 .07 0 .11-.003a246.93 246.93 0 0016.07-.722c.38-.029.77-.057 1.15-.089a252.2 252.2 0 0015.39-1.712c.04-.003.07-.01.1-.013 5.43-.779 10.54-1.706 15.23-2.747l.09-.019c5.87-1.306 11.08-2.792 15.42-4.385-.7-.451-1.53-.879-2.48-1.281-8.42-3.581-26.11-5.191-46.32-3.705-13.62.999-25.85 3.219-34.74 6.017-.46.144-.91.291-1.35.438-2.02.677-3.85 1.383-5.46 2.114-2.4 1.083-4.32 2.223-5.65 3.383z" fill="#EAE9E8"/><path d="M1200.81 725.432c.49-.099 83.11-16.88 100.61 6.596l3.52-2.824c1.07-1.201 1.58-2.418 1.47-3.622-.69-7.851-27.46-12.284-59.81-9.895-20.35 1.501-35.63 5.142-45.79 9.745z" fill="#EAE9E8"/><path d="M1205.59 759.787c.86.342 1.74.661 2.65.958h.01c.15.048.3.099.45.144 9.62 3.018 22.02 3.548 36.67 2.363 30.66-2.481 57.73-9.285 62.6-30.554.34-1.478.57-3.028.69-4.65.06-.77.09-1.556.09-2.36-.18.903-.69 1.814-1.51 2.718-.22.233-.45.466-.7.702a71.538 71.538 0 01-4.75 6.174c-.13.147-.26.294-.38.441-29.01 33.116-79.42 27.552-95.82 24.064z" fill="url(#paint2_linear)"/><path d="M1187.29 739.348c5.71 4.916 18.99 10.585 49.63 7.337 0 0 37.97-2.051 65.27-12.645.57-.221 4.64-3.252 6.47-5.992.06-.77.09-1.556.09-2.36-.17.903-.69 1.814-1.51 2.718a9.84 9.84 0 01-.7.702c-.8.748-1.81 1.486-3.01 2.214-9.38 5.717-30.25 10.837-54.76 12.821-33.21 2.686-60.74-1.387-62.33-9.113.21 1.511.5 2.948.85 4.318z" fill="#fff"/><path d="M1138.93 719.692a3.641 3.641 0 002.01 2.185l.03.01c.17.073.36.137.55.182.21.051.44.083.66.095l19.48 1.013c.66.035 7.12 1.453 12.52 2.699a24.992 24.992 0 0112.44 7.071l13.69-8.988-10.38-4.96a68.246 68.246 0 00-48.58-3.932c-.04.013-.09.026-.13.042a3.607 3.607 0 00-2.46 3.168c-.04.492.02.971.17 1.415z" fill="#237C82"/><path d="M1140.94 721.877l.02.01.56.182c.21.051.43.083.66.096l19.48 1.012c.66.035 7.12 1.453 12.52 2.699a24.994 24.994 0 0112.44 7.072l13.69-8.988-10.48 3.769a8.455 8.455 0 01-5.9-.064c-6.9-2.67-25.26-8.749-42.99-5.788z" fill="url(#paint3_linear)"/><path d="M1188.86 707.024l-2.5 10.48-4.44-1.735.81-14.105-2.3 3.824-1.79 26.603-6.39-4.874-8.18-2.556c-2.05 1.789-3.84-1.791-3.84-1.791-5.37 2.044-8.18-14.06-8.18-14.06l5.37-12.141-3.71-8.694-.42-.987c.01-.013.03-.022.03-.035 11.15-12.374 23.31-5.864 23.71-5.647v.003l.01.003 4.66 10.371c3.33.511 7.16 6.899 7.16 6.899.77 2.817 0 8.442 0 8.442z" fill="#FF936D"/><path d="M1177.03 681.309c-.29-.102-9.84-3.347-23.32 6.666l-.39-1.022c11.15-12.374 23.31-5.864 23.71-5.647v.003zm-6.37 26.479l.54 4.845.5 4.849c.16 1.616.38 3.229.47 4.852.09 1.622.15 3.248.11 4.88 0 .019-.01.032-.03.032-.01 0-.03-.013-.03-.026-.31-1.603-.52-3.216-.7-4.832-.18-1.616-.23-3.242-.34-4.861l-.3-4.865-.28-4.868c0-.019.02-.032.04-.035.01-.003.02.01.02.029zm-10.14-4.091l.67 5.346.64 5.35c.2 1.786.47 3.562.6 5.354.07.894.13 1.791.17 2.689l.06 1.348c.01.45.03.901.02 1.351 0 .019-.02.032-.03.032-.02 0-.03-.013-.03-.026-.1-.44-.17-.884-.25-1.328l-.22-1.332c-.14-.888-.25-1.779-.36-2.671-.23-1.782-.33-3.577-.48-5.365l-.44-5.37-.41-5.372c0-.019.01-.032.03-.035.02 0 .03.013.03.029zm-4.85 2.04l1.27 4.248 1.25 4.258c.41 1.421.87 2.823 1.21 4.264.34 1.437.66 2.884.87 4.356 0 .02-.01.035-.03.039-.02.003-.03-.007-.04-.02-.55-1.379-1-2.788-1.43-4.206-.42-1.415-.73-2.865-1.09-4.299l-1.05-4.306-1.03-4.315c0-.016.01-.035.03-.038.01-.007.03.003.04.019z" fill="#FF936D"/><path d="M1220.15 693.856c3.97.236 7.39-1.594 8.25-4.226 0-.07.01-.141.02-.211.19-3.172-3.29-5.96-7.77-6.225a10.775 10.775 0 00-3.77.425c-2.22.671-3.91 2.06-4.47 3.794-.01.074-.02.144-.02.217-.19 3.172 3.29 5.961 7.76 6.226zm-6.83-5.405c.11-1.823 1.75-3.315 4.07-3.976 1-.291 2.14-.419 3.34-.348.15.009.31.022.46.038 3.71.377 6.53 2.609 6.38 5.13-.16 2.622-3.47 4.557-7.4 4.324-3.94-.23-7-2.545-6.85-5.168zm30.95-4.986c2.89 3.364 8.25 3.501 11.96.307 3.3-2.833 4.19-7.34 2.33-10.671a2.855 2.855 0 00-.19-.227c-2.89-3.363-8.25-3.501-11.96-.307-3.3 2.833-4.19 7.337-2.33 10.665.06.077.13.157.19.233zm1.51.109c-2.39-2.779-1.68-7.308 1.58-10.119 3.27-2.807 7.85-2.833 10.24-.054 2.39 2.779 1.68 7.308-1.58 10.119-3.26 2.807-7.85 2.833-10.24.054z" fill="#F73C4F"/><path d="M1214.4 706.613s-7.57 4.43-11.43-6.845l-.82.786s-.25-1.613 0-2.712l-.6.54-.85-1.728s-1.47.779.31 5.525c0 0-1.49.601-1.88-6.496 0 0-1.57-.591-1.21 1.737 0 0-.89 2.865-2.35-6.458 0 0-2.35 1.961-1.63 4.567l.17.607-1.26-1.15s-.7-.137.88 3.587c.06.15-.13.278-.25.16l-1.4-1.476.9 3.255c.18.652.56 1.23 1.08 1.655l1.12.9c.29.237-.01.693-.34.524l-3.57-1.808.63 2.258 1.02.652.04.83 2.04.933-.38.664c0 .007 15.51 4.322 19.78-.507z" fill="#ABBD43"/><path d="M1214.4 706.613s-8.13 6.203-17.99-6.072" stroke="#71813A" stroke-width=".447" stroke-miterlimit="10"/><path d="M1266.82 691.519a7.499 7.499 0 001.94 3.316v.003c2.36 2.405 6.32 3.427 10.27 2.335 5.34-1.479 8.69-6.27 7.64-10.812-.02-.105-.05-.207-.08-.31-1.28-4.631-6.74-7.164-12.2-5.653l-.3.086c-.07.022-.15.045-.22.07a.897.897 0 00-.15.051c-.18.061-.35.122-.53.189-.08.032-.15.064-.23.096-.05.022-.1.044-.16.067l-.15.067c-.14.061-.28.124-.41.192-.06.035-.13.067-.2.102-.15.076-.3.159-.44.246-.07.035-.13.073-.19.112-.09.047-.17.099-.25.15a3.18 3.18 0 00-.23.156 9.565 9.565 0 00-1.11.85l-.18.159c-.14.131-.28.266-.42.403-.06.064-.12.131-.18.198-.17.176-.33.358-.48.546-.03.048-.07.093-.11.144-.36.463-.68.952-.94 1.46-.07.14-.14.284-.2.424a4.188 4.188 0 00-.26.63c-.03.07-.05.14-.08.21-.04.147-.09.297-.13.447a.96.96 0 00-.04.16c-.02.061-.03.118-.05.182-.02.09-.04.179-.05.265-.05.24-.08.483-.11.725 0 .048-.01.096-.01.144a6.33 6.33 0 00-.02.435c-.01.057-.01.111-.01.166 0 .137.01.274.02.412.01.294.05.587.1.878.03.233.09.466.15.699zm18.7-5.286c1.06 3.827-1.97 8.005-6.77 9.333-.1.029-.21.055-.31.08-.05.013-.1.023-.14.032-.12.029-.23.051-.34.074-.23.047-.46.083-.69.115a10.019 10.019 0 01-.73.076c-.01 0-.02.003-.02.003-.12.007-.23.013-.34.016-.12.007-.25.007-.36.007-.12 0-.24 0-.36-.007-.11-.003-.22-.006-.34-.016-.01 0-.02-.003-.03 0-.11-.006-.22-.019-.33-.028-.09-.01-.19-.019-.28-.032-.04-.003-.07-.01-.11-.013-.1-.016-.2-.029-.3-.048-.1-.019-.2-.035-.31-.057a9.573 9.573 0 01-.4-.09c-.09-.022-.18-.048-.27-.073-.1-.026-.19-.055-.28-.087a2 2 0 01-.23-.076 1.736 1.736 0 01-.17-.064 3.724 3.724 0 01-.25-.099 8.21 8.21 0 01-.24-.102c-.04-.02-.09-.039-.13-.061-.06-.029-.13-.058-.19-.093a3.245 3.245 0 01-.25-.131c-.06-.028-.12-.06-.17-.092-.11-.064-.22-.131-.33-.198l-.15-.106c-.06-.035-.11-.07-.16-.108-.03-.026-.07-.051-.1-.077a3.008 3.008 0 01-.22-.166c-.05-.042-.1-.086-.16-.134a1.7 1.7 0 00-.09-.083c-.05-.042-.09-.083-.14-.128-.04-.041-.09-.083-.13-.128-.04-.041-.09-.086-.13-.131-.04-.048-.09-.096-.13-.143-.03-.039-.07-.077-.1-.119a4.519 4.519 0 01-.32-.412c-.09-.115-.16-.236-.24-.357-.02-.042-.05-.083-.07-.128l-.09-.16c-.04-.073-.08-.15-.12-.227l-.09-.201a7.707 7.707 0 01-.19-.511c-.03-.083-.05-.166-.08-.249l-.06-.243-.03-.166-.03-.134a2.234 2.234 0 01-.04-.262c-.02-.176-.04-.351-.05-.53v-.265c0-.09 0-.179.01-.269 0-.089.01-.175.02-.265v-.003c0-.073.01-.144.02-.217.04-.323.11-.645.2-.965.02-.073.05-.147.07-.22v-.003c.03-.077.05-.153.08-.23v-.003l.09-.224c.04-.086.07-.172.11-.255.09-.195.19-.39.3-.579.04-.086.09-.172.15-.252.05-.089.1-.176.16-.262.06-.089.12-.172.18-.259v-.006c.12-.156.24-.313.37-.466.01-.01.01-.019.02-.029.08-.093.16-.182.24-.271v-.004c.08-.089.17-.175.25-.262l.27-.265c.09-.083.18-.159.27-.239.08-.074.16-.144.25-.214.02-.013.03-.026.05-.039.09-.073.19-.143.28-.217.11-.076.21-.15.32-.22.05-.035.1-.07.16-.106.05-.035.1-.07.16-.105.11-.07.22-.137.33-.201.11-.067.23-.128.34-.192l.36-.182c.12-.057.24-.115.36-.166.13-.054.25-.109.38-.156a11.998 11.998 0 01.73-.262c.02-.01.04-.016.07-.023.12-.041.25-.076.37-.112 4.82-1.309 9.57.716 10.62 4.542z" fill="#B2223E"/><path d="M1266.62 690.176l.02.077c.07.243.15.479.24.709.4 1.064 1.05 1.996 1.86 2.776 2.39 2.287 6.25 3.235 10.1 2.168 4.85-1.341 8.06-5.41 7.83-9.55-.03-.105-.05-.207-.08-.31-1.28-4.631-6.75-7.164-12.21-5.653l-.29.086c-.08.023-.16.045-.23.071-.05.015-.1.031-.15.051-.18.06-.35.121-.52.188-.08.032-.16.064-.23.096-.06.022-.11.045-.16.067l-.16.067c-.13.061-.27.125-.4.192-.07.035-.14.067-.2.102-.15.077-.3.16-.45.246-.06.035-.13.073-.19.112-.08.048-.16.099-.24.15a10.858 10.858 0 00-1.14.827c-.07.057-.14.118-.21.179-.06.054-.12.105-.18.16a9.74 9.74 0 00-.41.402c-.06.064-.13.131-.19.198-.16.176-.32.358-.47.546-.04.048-.08.093-.11.144-.37.463-.68.952-.95 1.46-.07.14-.14.284-.2.424-.03.055-.05.112-.07.166-.07.154-.13.307-.19.464-.02.07-.05.14-.07.21-.05.147-.1.297-.14.448a.926.926 0 01-.04.159c-.01.061-.03.118-.04.182l-.06.265c-.04.24-.08.483-.1.726-.01.047-.01.095-.01.143-.02.144-.02.291-.03.435v.166c0 .137 0 .274.01.412l.06.239zm2.4 2.696c-.09-.115-.16-.236-.24-.358-.02-.041-.05-.083-.07-.127a.665.665 0 01-.09-.16l-.12-.227-.09-.201a4.532 4.532 0 01-.19-.511c-.03-.083-.05-.166-.08-.249l-.06-.243c-.01-.054-.03-.112-.04-.166-.01-.045-.01-.09-.02-.134a2.3 2.3 0 01-.04-.262 9.315 9.315 0 01-.05-.53v-.266c0-.089 0-.178.01-.268 0-.089.01-.176.02-.265v-.003c0-.074.01-.144.02-.217.04-.323.11-.646.2-.965.02-.073.04-.147.07-.22v-.003c.02-.077.05-.154.08-.23v-.004l.09-.223c.04-.086.07-.173.11-.256.09-.195.19-.389.3-.578.04-.086.09-.169.14-.252.05-.09.11-.176.17-.262l.18-.259v-.006c.12-.157.24-.313.37-.467.01-.009.01-.019.02-.028.08-.093.16-.182.24-.272v-.003c.08-.089.16-.176.25-.262.09-.089.18-.179.27-.265.08-.083.17-.16.26-.24.09-.073.17-.143.26-.214.02-.012.03-.025.05-.038.09-.073.19-.144.28-.217.1-.077.21-.15.31-.22.06-.036.11-.071.16-.106.06-.035.11-.07.17-.105.11-.067.22-.138.33-.201.11-.064.23-.128.34-.192.12-.064.24-.121.36-.182.12-.058.24-.115.36-.166.12-.055.25-.109.38-.157.12-.051.25-.099.38-.143.11-.042.23-.08.35-.119a.305.305 0 01.07-.022c.12-.042.25-.077.37-.112 4.8-1.329 9.55.696 10.61 4.526 1.05 3.827-1.98 8.004-6.78 9.333-.1.029-.2.054-.31.08-.04.013-.09.022-.14.032a11.238 11.238 0 01-1.02.188c-.15.019-.29.039-.43.051-.1.013-.2.02-.31.026-.01 0-.01.003-.02.003-.11.006-.23.013-.34.016-.12.006-.24.006-.35.006-.12 0-.24 0-.36-.006a5.174 5.174 0 01-.34-.016c-.01 0-.03-.003-.04 0-.11-.006-.22-.019-.33-.029a9.32 9.32 0 01-.28-.032l-.1-.012c-.1-.016-.2-.029-.3-.048-.11-.019-.21-.035-.31-.058-.14-.025-.27-.057-.4-.089-.1-.023-.19-.048-.28-.074-.09-.025-.18-.054-.28-.086a2.742 2.742 0 01-.22-.077 4.282 4.282 0 01-.18-.063c-.09-.032-.16-.064-.25-.099-.08-.032-.15-.067-.23-.103-.05-.019-.09-.038-.14-.06a15 15 0 01-.19-.093c-.08-.041-.17-.086-.25-.131-.06-.029-.11-.061-.17-.093-.11-.063-.22-.13-.32-.198-.06-.035-.11-.07-.16-.105-.05-.035-.1-.07-.15-.109-.04-.025-.07-.051-.11-.076-.07-.055-.14-.109-.21-.166a1.417 1.417 0 01-.16-.134c-.03-.029-.07-.055-.1-.083-.04-.042-.09-.084-.13-.128a1.213 1.213 0 01-.13-.128 1.234 1.234 0 01-.13-.131 1.69 1.69 0 01-.13-.144.782.782 0 01-.1-.118 3.277 3.277 0 01-.31-.396z" fill="#F73C4F"/><path d="M1233.92 708.89s8.19 13.846 14.61 13.332c-.06-.016-.85-.221-1.8-.792a7.369 7.369 0 01-1.08-.799 6.382 6.382 0 01-2.02-3.43c-.26-1.182-.27-2.632.16-4.395.26-1.035.66-2.175 1.24-3.437l-.46.003-.67.004s.2-.282.5-.646c.36-.431.87-.977 1.38-1.312l-.8-.026.04-.156.15-.473.39-1.207s-.14-.042-.39.025c-.58.15-1.74.862-3.1 3.916-.04.086-.08.169-.11.259 0 0-.28-.112-.23-.671.01-.054.02-.115.03-.182.16-.792.9-2.303 3.34-5.136 0 0-.12-.259-.36-.428-.34-.24-.92-.297-1.72.84 0 0-.84.463-.59-.537.19-.769 1.03-2.395 3.37-5.749 0 0-.24-.016-.63.013-.96.073-2.79.447-3.71 2.149l-.3.556-.06-.872-.05-.827s-.04-.058-.14-.019c-.22.083-.72.623-1.71 3.21-.06.153-.29.112-.29-.055v-.495l.01-1.539-.18.335-1.43 2.639a3.205 3.205 0 00-.36 1.945l.18 1.418c.04.374-.49.498-.61.144l-1.32-3.776-1.11 2.064.28 1.178-.49.569-.05.06.58 1.463.24.62-.55.166-.18.051z" fill="#ABBD43"/><path d="M1248.54 722.222s-10.16-1.163-8.76-16.842" stroke="#71813A" stroke-width=".447" stroke-miterlimit="10"/><path d="M1266.82 728.198l-.66 3.932 2.61-2.939s4.79.987 5.55 1.626l.36-1.307.85.467.37-.681 1.07-1.05-.85-.467 1.06-1.051.25-1.015.99-1.629-1.75.677.02-1.147c0-.22.09-.431.25-.587l1.36-1.393-.64-.926.94-1.386-4.25 2.085c-.16.077-.3-.134-.16-.249l2.55-2.236 1.45-1.526-1.43-.272a.778.778 0 01-.56-1.086l1.91-4.283-1.43.658-.69-.671-1.38 1.802-.77-.949-1.34 3.245-.3-2.111-.94.648a1.999 1.999 0 00-.85 1.872l.24 2.159a.824.824 0 01-.55.882.264.264 0 01-.35-.214l-.39-3.162a1.531 1.531 0 00-1.06-1.278l-1.07 2.578c-.18.434-.24.913-.16 1.379l.88 5.453-.1.53c-.05.306-.49.303-.55 0l-.31-1.763-.02-1.562-.51-4.392-.97-.802-1.12 2.904a.925.925 0 01-1.4.415l-.29-.217.39 1.942-.87 1.025.86 1.405-.73.614 1.86.715 2.63 3.338z" fill="#ABBD43"/><path d="M1266.16 732.129l3.92-7.966 3.35-6.8" fill="#71813A"/><path d="M1226.85 707.685c-3.51-3.995-8.6-5.809-13.4-5.292-2.89.313-5.68 1.466-7.97 3.501-.06.051-.11.102-.17.153l10.42 11.508 9.65 10.968.6.69c6.1-5.414 6.49-15.13.87-21.528z" fill="#FCD83C"/><path d="M1225.43 707.772c-3.16-3.603-7.61-5.437-11.98-5.379-2.89.313-5.68 1.466-7.97 3.501-.06.051-.11.102-.17.153l2.38 2.629 8.04 8.879 7.43 8.448 2.22 2.52c5.31-5.529 5.42-14.651.05-20.751z" fill="#FEFCFF"/><path d="M1223.21 710.186c-2.58-3.059-6.37-4.391-10.01-3.906a10.972 10.972 0 00-5.51 2.392l.56.617 5.18 5.714 2.3 2.549 1.41 1.594 5.15 5.867.87.987c3.77-4.421 3.88-11.272.05-15.814z" fill="#FFF8D9"/><path d="M1212.66 708.12l1.87 5.969a.932.932 0 001.55.383l4.53-4.458a.94.94 0 00-.17-1.479c-1.39-.853-4.1-2.153-7.06-1.629-.55.099-.88.677-.72 1.214zm8.83 3.238l-4.34 4.529c-.48.508-.27 1.351.4 1.553l6.04 1.836a.947.947 0 001.22-.859c.08-1.639-.07-4.657-1.93-7.008-.34-.444-1-.46-1.39-.051zm3.02 10.978a.932.932 0 00-.52-1.303l-5.86-2.121a.946.946 0 00-1 .237l5.16 5.867c.85-.699 1.65-1.581 2.22-2.68zm-11.08-7.333a.934.934 0 00-.05-.568l-2.42-5.855a.936.936 0 00-1.43-.387c-.37.278-.82.646-1.28 1.096l5.18 5.714zm30.53-14.75c2.96 1.705 6.42 1.76 9.23.453a9.157 9.157 0 004.13-3.769c.02-.041.05-.083.07-.127l-8.71-4.846-8.12-4.679-.51-.294c-2.59 4.549-.83 10.534 3.91 13.262z" fill="#FCD83C"/><path d="M1244.8 699.911c2.67 1.536 5.75 1.734 8.39.799a9.146 9.146 0 004.12-3.769.696.696 0 00.07-.128l-1.98-1.108-6.72-3.741-6.26-3.602-1.86-1.077c-2.09 4.456-.28 10.023 4.24 12.626z" fill="#FEFCFF"/><path d="M1245.65 697.982a7.15 7.15 0 006.89.313 7.047 7.047 0 002.86-2.59l-.47-.259-4.32-2.408-1.93-1.074-1.18-.68-4.34-2.504-.73-.422c-1.38 3.466-.04 7.653 3.22 9.624z" fill="#FFF8D9"/><path d="M1252.49 697.065l-2.37-3.245c-.26-.364-.81-.316-1.02.086l-1.83 3.641c-.18.352.02.776.4.866 1.03.23 2.94.463 4.63-.463.32-.173.4-.591.19-.885zm-6.03-.15l1.7-3.647a.603.603 0 00-.56-.862l-4.05.13a.612.612 0 00-.57.773c.29 1.016 1 2.817 2.62 3.865.3.198.71.07.86-.259zm-4.1-6.049c-.06.358.22.68.58.687l4 .083c.25.006.46-.147.56-.352l-4.35-2.504c-.37.601-.67 1.3-.79 2.086zm8.25 2.171c.01.118.06.233.14.335l2.68 3.06c.26.297.73.265.95-.057.17-.246.36-.559.55-.93l-4.32-2.408z" fill="#FCD83C"/><path d="M1250.26 723.17l2.94-.93.45-.14 2.81-10.323 1.32-4.855 2.7-9.918 1.46-4.27c.08-.093.15-.182.23-.271.12-.141.23-.278.33-.409.05-.064.1-.131.15-.192.2-.265.37-.517.52-.754.02-.038.05-.076.07-.111.14-.224.25-.441.35-.642.02-.048.04-.099.07-.144l.06-.138.06-.15c.02-.051.03-.099.05-.147.02-.047.03-.092.05-.14.01-.045.03-.09.04-.131.01-.032.02-.064.02-.096.03-.093.05-.182.06-.262a.2.2 0 01.01-.076c0-.026.01-.048.01-.071.01-.06.01-.121.01-.179.01-.067.01-.131.01-.191 0-.042-.01-.087-.01-.125v-.013c0-.044 0-.089-.01-.134-.01-.022-.01-.044-.01-.067-.09-.504-.33-.725-.33-.725l-.3-.901-.34-1.044-.39-1.179-.04.128-.74 2.14-.18.514-.56-1.146c-1.44.789-1.35 3.264-1.17 4.673.08.597.17.999.17.999l-.67.677-.09.087-.81.821-2.11 5.477-.04.102-.39 1.546v.004l-5.76 22.706z" fill="#71813A"/><g opacity=".5" fill="#71813A"><path opacity=".5" d="M1261.86 686.71l.21.757.98-1.501-.35-1.249a.216.216 0 00-.1-.147l-.74 2.14zm-1.76.796l.65-1.029c.12-.195.42-.15.48.07l.34 1.249-.98 1.501-.49-1.791zm-.65 4.922l.33 1.178.97-1.501-.34-1.249a.272.272 0 00-.46-.108c.08.597.18.999.18.999l-.68.681zm-3.32 8.783l.49-1.271-.17-1.128-.04.103-.39 1.546v.003l.11.747z"/><path opacity=".5" d="M1259.72 696.813l2.25-5.062-.28-1.016.65-1.029c.12-.194.42-.15.48.071v.003c.12-.387.2-.799.25-1.223l-.28-.978.34-.527c-.01-.498-.05-.983-.1-1.434l.34 1.045.07-.112c.12-.195.42-.15.48.07l.35 1.249-.28.418c.12.684-.04 1.888-1.5 3.763l-.31.479-.02-.07c-.07.089-.15.179-.23.271l-1.46 4.271-6.83 25.095-.45.141 6.53-25.425z"/></g><path d="M1262.31 687.177l-.5-1.795.65-1.029c.13-.195.42-.15.48.07l.35 1.249-.98 1.505zm1.22 1.907l-.49-1.795.65-1.029c.12-.195.41-.15.48.071l.34 1.248-.98 1.505zm-2.7-.075l-.49-1.795.65-1.028c.12-.195.41-.15.48.07l.34 1.249-.98 1.504zm1.59 3.233l-.49-1.795.65-1.029c.12-.194.42-.15.48.071l.34 1.249-.98 1.504zm-2.4 1.076l-.5-1.795.65-1.028c.12-.195.42-.15.48.07l.35 1.249-.98 1.504zm-3.65 7.606l-.28-1.84.33-.875c.06-.166.21-.067.25.163l.19 1.28-.49 1.272zm-.04 7.426l.51-1.789.65-.664c.13-.128.23.028.16.249l-.35 1.245-.97.959z" fill="#ABBD43"/><path d="M1244.71 737.898a8.507 8.507 0 00.52-7.806 7.73 7.73 0 00-3.13-3.539c-.04-.019-.07-.042-.11-.061l-4.22 7.295-4.06 6.804-.26.428c3.8 2.255 8.89.846 11.26-3.121z" fill="#B91514"/><path d="M1244.44 737.179a8.578 8.578 0 00.79-7.087 7.73 7.73 0 00-3.13-3.539c-.04-.019-.07-.042-.11-.061l-.96 1.664-3.26 5.631-3.13 5.242-.94 1.562c3.74 1.83 8.47.373 10.74-3.412z" fill="#F34230"/><path d="M1242.82 736.432a6.063 6.063 0 00.36-5.823 5.918 5.918 0 00-2.15-2.453l-.22.39-2.1 3.625-.94 1.613-.59.99-2.17 3.638-.37.613c2.91 1.217 6.47.141 8.18-2.593z" fill="#D52D12"/><path d="M1242.43 735.677c.08-.149-.07-.377-.32-.511s-.52-.122-.6.026c-.08.149.06.377.32.511.25.134.52.122.6-.026zm-6.01 2.482c.18-.23.21-.498.07-.598-.13-.101-.38.004-.55.234-.17.23-.2.498-.07.599.13.1.38-.005.55-.235zm5.05-8.506c.11-.262.08-.531-.07-.599-.15-.068-.37.089-.49.352-.12.262-.09.53.07.599.15.068.37-.089.49-.352zm1.28 2.733c.27-.086.45-.285.4-.445-.05-.16-.31-.22-.58-.135-.28.086-.46.285-.41.445.05.16.31.22.59.135zm-3.28 5.968c.16-.049.22-.312.14-.587-.09-.274-.29-.457-.45-.407-.16.05-.22.313-.13.587.08.275.28.457.44.407z" fill="#FF7E1F"/><path d="M1199.2 728.948c3.35 3.89 9.54 4.046 13.84.351 3.81-3.277 4.84-8.486 2.68-12.338-.07-.09-.14-.179-.21-.266-3.35-3.89-9.54-4.046-13.84-.351-3.81 3.277-4.84 8.483-2.69 12.329.07.096.14.188.22.275zm1.75.127c-2.77-3.213-1.95-8.451 1.83-11.699 3.77-3.249 9.07-3.277 11.84-.061 2.76 3.213 1.94 8.451-1.83 11.7-3.78 3.245-9.08 3.274-11.84.06z" fill="#F73C4F"/><path d="M1920 780H554v4h1366v-4z" fill="url(#paint4_linear)"/><path fill-rule="evenodd" clip-rule="evenodd" d="M1330.51 723.739h17.88l5.29 25.124c.43 2.718-6.19 4.766-13.02 4.929-7.28.175-14.79-1.722-14.33-5.028l4.18-25.025z" fill="#BCD4D4"/><path fill-rule="evenodd" clip-rule="evenodd" d="M1331.02 725.087h16.1l4.77 22.614c.38 2.446-5.57 4.289-11.73 4.436-6.54.157-13.32-1.552-12.89-4.529l3.75-22.521z" fill="#CADFDE"/><path fill-rule="evenodd" clip-rule="evenodd" d="M1347.15 725.215l4.73 22.486c.39 2.446-5.57 4.289-11.72 4.436-6.55.157-13.32-1.552-12.89-4.529l.9-5.391c9.56-4.766 17.71-15.527 18.98-17.002z" fill="#C0DBDC"/><path fill-rule="evenodd" clip-rule="evenodd" d="M1330.51 723.739h17.88l.25 1.144c-2.44.629-5.63 1.006-9.12 1.006-3.53 0-6.75-.39-9.2-1.032l.19-1.118z" fill="#BCD4D4"/><path fill-rule="evenodd" clip-rule="evenodd" d="M1330.42 724.094c1.44 1.06 7.41 1.411 9.5 1.411 5.11 0 9.25-.747 9.25-1.67v-.042l-.09-1.143 2.3-6.318h-22.92l2.27 6.26-.31 1.502z" fill="#1F6B6D"/><path fill-rule="evenodd" clip-rule="evenodd" d="M1348.81 722.669v-.016l2.3-6.318h-22.92l2.27 6.26-.02.102c2.74.547 5.77.741 9.04.741 3.27 0 6.59-.22 9.33-.769z" fill="#237C82"/><path fill-rule="evenodd" clip-rule="evenodd" d="M1334.66 716.335h-4.54s1.1 6.184 2.32 6.656c2.27.323 4.71.447 7.31.447.33 0 .66-.003.99-.006 2.3-.929 1.99-4.666 1.83-6.302 0 0-4.35-.524-7.91-.795z" fill="#1F6B6D"/><path fill-rule="evenodd" clip-rule="evenodd" d="M1346.88 722.991c.47-.061.93-.134 1.38-.214l.05-.207c.59-2.386 2.02-5.469 2-6.034 0 0-1.14-.201-1.14.176 0 .179-.73 2.085-1.47 4.079-.28.753-.57 1.513-.82 2.2z" fill="#A5C3D2"/><path fill-rule="evenodd" clip-rule="evenodd" d="M1339.61 713.54c6.69-.118 11.5 1.875 11.5 2.795 0 .923-5.13 1.67-11.46 1.67-6.33 0-11.46-.747-11.46-1.67 0-.923 4.72-2.68 11.42-2.795z" fill="#9AB6C5"/><path fill-rule="evenodd" clip-rule="evenodd" d="M1339.61 713.54c5.56-.099 9.82 1.262 11.1 2.252-1.39.834-5.82 1.441-11.06 1.441-5.23 0-9.64-.604-11.06-1.435 1.28-.939 5.47-2.162 11.02-2.258z" fill="#EAE9E8"/><path fill-rule="evenodd" clip-rule="evenodd" d="M1335.99 714.892c.97 0 1.75-.154 1.75-.345 0-.189-.78-.339-1.75-.339-.96 0-1.75.153-1.75.339 0 .188.79.345 1.75.345zm3.66.814c.97 0 1.75-.153 1.75-.342 0-.188-.78-.342-1.75-.342-.96 0-1.75.154-1.75.342 0 .189.79.342 1.75.342zm1.59-1.067c.97 0 1.75-.154 1.75-.342 0-.189-.78-.342-1.75-.342-.96 0-1.75.153-1.75.342 0 .185.79.342 1.75.342zm-7.93 1.261c.96 0 1.75-.153 1.75-.345 0-.188-.79-.338-1.75-.338-.97 0-1.75.153-1.75.338 0 .189.78.345 1.75.345zm3.64.815c.96 0 1.75-.154 1.75-.342 0-.188-.79-.342-1.75-.342-.97 0-1.75.154-1.75.342 0 .185.78.342 1.75.342zm5.32.057c.96 0 1.75-.153 1.75-.341 0-.189-.79-.342-1.75-.342s-1.75.153-1.75.342c0 .188.79.341 1.75.341zm2.7-1.267c.97 0 1.75-.153 1.75-.342 0-.188-.78-.342-1.75-.342-.96 0-1.75.154-1.75.342 0 .189.79.342 1.75.342z" fill="#647883"/><path fill-rule="evenodd" clip-rule="evenodd" d="M1331 717.884c-.24.713.49 4.482 1.18 4.628.69.151.13-3.261-.12-3.794-.25-.537-.45-1.083-1.06-.834z" fill="#A5C3D2"/><path fill-rule="evenodd" clip-rule="evenodd" d="M1344.12 726.805s3.75 20.18 3.04 21.317c-.7 1.137-1.79 1.648-.55 1.648 1.26 0 3.83-1.14 3.91-2.159.08-1.025-3.91-20.748-4.53-21.09-.62-.342-1.64-.569-1.87.284z" fill="#BCD4D4"/><path fill-rule="evenodd" clip-rule="evenodd" d="M1332.09 726.122s-4.06 20.01-3.13 20.521c.94.514 1.25.288 1.25.288s3.17-19.203 3.44-20.295c.27-1.093-1.56-.514-1.56-.514z" fill="#fff"/><path fill-rule="evenodd" clip-rule="evenodd" d="M1334.47 727.549s-2.59 16.628-1.77 17.136c.82.508 3.04-15.935 3.1-16.491.07-.552-.69-.919-1.33-.645z" fill="#D6E4E5"/><path fill-rule="evenodd" clip-rule="evenodd" d="M1335.99 714.208h.12c-.58.134-1 .345-1.36.581-.31-.06-.51-.147-.51-.239 0-.192.79-.342 1.75-.342zm-2.68 1.006c.29 0 .57.016.81.041-.3.234-.58.464-.94.642-.9-.012-1.62-.159-1.62-.338 0-.192.78-.345 1.75-.345z" fill="#647883"/><path fill-rule="evenodd" clip-rule="evenodd" d="M1327.36 749.279l.48-2.722 1.76-10.569c.11-.658 2.97-.846 2.97-.846s1.48.45 2.37-.032c2.2-1.185 4.52-2.214 7.55-1.198 1.44.482 2.03 1.766 3.09 1.54 1.12-.243 3.6-1.537 3.96.191l2.66 12.866s-.33 1.587-2.89 2.597c-5.07 1.999-15.09 3.229-21.95-1.827z" fill="#BCD4D4"/><path fill-rule="evenodd" clip-rule="evenodd" d="M1352.21 748.506v.012c-.03.103-.39 1.47-2.55 2.444l-.01.003-.08.038-.32.131c-.2.074-.4.15-.61.224-2.2.757-5.16 1.236-8.17 1.309-2.54.061-5.11-.156-7.28-.622-1.73-.47-3.41-1.173-4.96-2.16-.5-.517-.75-1.101-.66-1.743l.26-1.572v-.006l1.38-8.247.04-.201.03-.195.03-.189.24-1.424.01-.087.02-.073v-.064l.01-.051v-.006l.01-.032c.11-.652 2.97-.843 2.97-.843s1.47.45 2.37-.032c2.2-1.185 4.51-2.214 7.54-1.198 1.45.482 2.04 1.766 3.09 1.539 1.13-.242 3.61-1.536 3.97.192l2.67 12.853z" fill="#ECEDED"/><path fill-rule="evenodd" clip-rule="evenodd" d="M1352.21 748.506v.012c-.03.103-.39 1.47-2.55 2.444l-.01.003-.08.038-.32.131c-.19.074-.39.15-.6.221-2.2.76-5.17 1.239-8.18 1.309-2.54.061-5.11-.156-7.28-.623-1.73-.469-3.41-1.172-4.96-2.159-.5-.517-.75-1.102-.66-1.744l.26-1.571v-.007l.64-3.816c4.55-2.265 8.78-5.887 12.1-9.222.61.045 1.24.17 1.91.393 1.45.483 2.03 1.767 3.09 1.54 1.12-.243 3.61-1.536 3.96.191l2.68 12.86z" fill="#DDE7E7"/><path fill-rule="evenodd" clip-rule="evenodd" d="M1345.85 735.384c.97 5.765 2.02 12.616 1.62 13.268-.71 1.134-1.79 1.648-.55 1.648 1.25 0 3.83-1.137 3.91-2.159.04-.597-1.3-7.599-2.55-13.373-.79.025-1.76.421-2.43.616z" fill="#D8E3E5"/><path fill-rule="evenodd" clip-rule="evenodd" d="M1330.72 735.403c-.99 5.452-1.96 11.489-1.45 11.767.94.511 1.25.284 1.25.284s1.09-6.624 2.05-12.309c-.01 0-1.01.067-1.85.258z" fill="#fff"/><path fill-rule="evenodd" clip-rule="evenodd" d="M1333.74 735.33c-.61 4.549-1.18 9.605-.73 9.883.49.3 1.48-5.456 2.21-10.253-.09.051-.18.102-.28.153-.35.189-.8.237-1.2.217z" fill="#D6E4E5"/><path fill-rule="evenodd" clip-rule="evenodd" d="M1363.9 738.293h17.88l5.29 25.124c.43 2.718-6.19 4.766-13.02 4.929-7.28.175-14.79-1.722-14.33-5.028l4.18-25.025z" fill="#BCD4D4"/><path fill-rule="evenodd" clip-rule="evenodd" d="M1364.41 739.642h16.1l4.76 22.613c.39 2.447-5.56 4.29-11.72 4.437-6.55.156-13.32-1.553-12.89-4.529l3.75-22.521z" fill="#CADFDE"/><path fill-rule="evenodd" clip-rule="evenodd" d="M1380.54 739.769l4.73 22.485c.39 2.447-5.57 4.29-11.72 4.437-6.55.156-13.32-1.552-12.9-4.529l.91-5.392c9.56-4.765 17.71-15.526 18.98-17.001z" fill="#C0DBDC"/><path fill-rule="evenodd" clip-rule="evenodd" d="M1363.9 738.293h17.88l.24 1.143c-2.43.63-5.62 1.007-9.11 1.007-3.53 0-6.75-.39-9.2-1.032l.19-1.118z" fill="#BCD4D4"/><path fill-rule="evenodd" clip-rule="evenodd" d="M1363.55 738.648c1.43 1.061 7.4 1.412 9.49 1.412 5.11 0 9.26-.748 9.26-1.671 0-.016-.01-.028-.01-.041l-.09-1.144 2.3-6.317h-22.92l2.27 6.26-.3 1.501z" fill="#1F6B6D"/><path fill-rule="evenodd" clip-rule="evenodd" d="M1382.21 737.223v-.016l2.29-6.317h-22.92l2.27 6.26-.02.102c2.75.546 5.77.741 9.05.741 3.27 0 6.58-.22 9.33-.77z" fill="#237C82"/><path fill-rule="evenodd" clip-rule="evenodd" d="M1367.78 730.89h-4.54s1.1 6.183 2.32 6.656c2.27.323 4.71.447 7.31.447.33 0 .66-.003.99-.006 2.3-.93 1.99-4.667 1.83-6.302 0 0-4.35-.524-7.91-.795z" fill="#1F6B6D"/><path fill-rule="evenodd" clip-rule="evenodd" d="M1380.27 737.546c.47-.061.93-.134 1.37-.214l.05-.208c.6-2.386 2.03-5.468 2.01-6.033 0 0-1.14-.201-1.14.175 0 .179-.73 2.086-1.48 4.079-.27.754-.56 1.514-.81 2.201z" fill="#A5C3D2"/><path fill-rule="evenodd" clip-rule="evenodd" d="M1373 728.095c6.69-.118 11.5 1.875 11.5 2.795 0 .923-5.13 1.67-11.46 1.67-6.33 0-11.46-.747-11.46-1.67 0-.923 4.72-2.68 11.42-2.795z" fill="#9AB6C5"/><path fill-rule="evenodd" clip-rule="evenodd" d="M1373 728.095c5.56-.099 9.82 1.262 11.1 2.252-1.4.833-5.82 1.44-11.07 1.44-5.22 0-9.64-.604-11.05-1.434 1.28-.939 5.47-2.162 11.02-2.258z" fill="#EAE9E8"/><path fill-rule="evenodd" clip-rule="evenodd" d="M1369.38 729.446c.96 0 1.75-.153 1.75-.345 0-.188-.79-.338-1.75-.338s-1.75.153-1.75.338c0 .189.79.345 1.75.345zm3.66.815c.97 0 1.75-.154 1.75-.342 0-.189-.78-.342-1.75-.342-.96 0-1.75.153-1.75.342 0 .188.79.342 1.75.342zm1.59-1.068c.96 0 1.75-.153 1.75-.341 0-.189-.79-.342-1.75-.342s-1.75.153-1.75.342c0 .185.79.341 1.75.341zm-7.93 1.259c.96 0 1.74-.153 1.74-.345 0-.188-.78-.338-1.74-.338-.97 0-1.75.153-1.75.338 0 .192.78.345 1.75.345zm3.64.817c.96 0 1.75-.153 1.75-.341 0-.189-.79-.342-1.75-.342-.97 0-1.75.153-1.75.342 0 .188.78.341 1.75.341zm5.32.058c.96 0 1.75-.153 1.75-.342 0-.188-.79-.341-1.75-.341s-1.75.153-1.75.341c0 .189.79.342 1.75.342zm2.7-1.268c.97 0 1.75-.153 1.75-.341 0-.189-.78-.342-1.75-.342-.96 0-1.74.153-1.74.342-.01.188.78.341 1.74.341z" fill="#647883"/><path fill-rule="evenodd" clip-rule="evenodd" d="M1364.39 732.436c-.24.712.49 4.481 1.18 4.628.69.15.12-3.261-.12-3.795-.25-.533-.45-1.079-1.06-.833z" fill="#A5C3D2"/><path fill-rule="evenodd" clip-rule="evenodd" d="M1377.5 741.36s3.75 20.18 3.05 21.317c-.7 1.137-1.79 1.648-.55 1.648 1.25 0 3.83-1.14 3.91-2.159.08-1.026-3.91-20.749-4.53-21.09-.62-.342-1.64-.569-1.88.284z" fill="#BCD4D4"/><path fill-rule="evenodd" clip-rule="evenodd" d="M1365.48 740.676s-4.06 20.011-3.13 20.522c.94.514 1.25.287 1.25.287s3.17-19.202 3.44-20.294c.27-1.093-1.56-.515-1.56-.515z" fill="#fff"/><path fill-rule="evenodd" clip-rule="evenodd" d="M1367.87 742.104s-2.6 16.628-1.78 17.136c.82.508 3.04-15.935 3.1-16.491.07-.552-.69-.92-1.32-.645z" fill="#D6E4E5"/><path fill-rule="evenodd" clip-rule="evenodd" d="M1369.38 728.763h.11c-.57.134-1 .345-1.36.581-.3-.061-.5-.147-.5-.239 0-.192.78-.342 1.75-.342zm-2.69 1.006c.3 0 .58.016.81.041-.29.233-.58.463-.93.642-.91-.013-1.62-.16-1.62-.339 0-.191.78-.344 1.74-.344z" fill="#647883"/><path fill-rule="evenodd" clip-rule="evenodd" d="M1360.75 763.833l.48-2.721 1.76-10.569c.11-.658 2.97-.847 2.97-.847s1.48.451 2.38-.032c2.19-1.184 4.51-2.213 7.54-1.197 1.45.482 2.03 1.766 3.09 1.539 1.12-.243 3.61-1.536 3.96.192l2.66 12.865s-.33 1.588-2.89 2.597c-5.07 2-15.09 3.229-21.95-1.827z" fill="#BCD4D4"/><path fill-rule="evenodd" clip-rule="evenodd" d="M1385.59 763.06v.013c-.02.102-.39 1.469-2.54 2.444l-.01.003-.08.038c-.11.042-.21.086-.32.131-.2.074-.4.15-.61.224-2.2.757-5.16 1.236-8.18 1.309-2.53.061-5.1-.156-7.27-.623-1.73-.469-3.41-1.172-4.96-2.159-.51-.517-.75-1.102-.66-1.744l.26-1.571v-.007l1.38-8.247.03-.201.04-.195.03-.188.23-1.425.02-.086.01-.073.01-.064.01-.051v-.007l.01-.032c.11-.651 2.97-.843 2.97-.843s1.47.451 2.37-.032c2.2-1.185 4.51-2.213 7.54-1.197 1.45.482 2.03 1.766 3.09 1.539 1.12-.243 3.61-1.536 3.96.192l2.67 12.852z" fill="#1A1A1A"/><path fill-rule="evenodd" clip-rule="evenodd" d="M1385.59 763.06v.013c-.02.102-.39 1.469-2.54 2.443l-.01.004-.08.038c-.11.041-.21.086-.32.131-.19.073-.39.15-.6.22-2.2.76-5.17 1.24-8.19 1.31-2.53.061-5.1-.157-7.27-.623-1.73-.469-3.41-1.172-4.96-2.159-.51-.518-.75-1.102-.66-1.744l.26-1.572v-.006l.64-3.817c4.55-2.264 8.77-5.886 12.1-9.221.6.045 1.24.169 1.91.393 1.45.482 2.03 1.766 3.09 1.54 1.12-.243 3.61-1.537 3.96.191l2.67 12.859z" fill="#1B1B21"/><path fill-rule="evenodd" clip-rule="evenodd" d="M1379.24 749.939c.97 5.765 2.02 12.616 1.62 13.268-.71 1.134-1.8 1.648-.55 1.648s3.82-1.137 3.9-2.159c.05-.598-1.29-7.599-2.54-13.374-.79.026-1.76.422-2.43.617z" fill="#D8E3E5"/><path fill-rule="evenodd" clip-rule="evenodd" d="M1364.1 749.958c-.98 5.452-1.95 11.489-1.44 11.767.94.511 1.25.284 1.25.284s1.09-6.624 2.05-12.31c-.01 0-1.01.067-1.86.259z" fill="#fff"/><path fill-rule="evenodd" clip-rule="evenodd" d="M1367.12 749.885c-.61 4.548-1.17 9.605-.72 9.882.49.301 1.48-5.455 2.21-10.252-.09.051-.19.102-.28.153-.35.188-.8.236-1.21.217z" fill="#D6E4E5"/><path fill-rule="evenodd" clip-rule="evenodd" d="M1089.53 691.505v52.376s-.01.198-.01.23h.01v.137c0 .658-3.93 3.009-9.24 3.699-.93.121-1.91.191-2.92.191-6.71 0-12.15-3.117-12.15-3.89v-.137h.01c0-.052-.01-.499-.01 0v-53.222c0-4.236 3.51-10.081 6.8-11.176v-.058l2.16-18.57.02-.166h-1.28V655.1h9.18v5.819h-1.36l.01.166 1.4 14.488.45 4.609c4.71 1.83 6.93 6.899 6.93 11.323z" fill="#1B1B21"/><path fill-rule="evenodd" clip-rule="evenodd" d="M1082.15 675.577h-9.65l1.68-14.488h6.57l1.4 14.488zm7.38 23.725v30.119c0 .278-.05.54-.15.789h-24.08a1.557 1.557 0 01-.08-.527v-30.381h24.31z" fill="#ABBD43"/><path fill-rule="evenodd" clip-rule="evenodd" d="M1089.53 691.505v52.743c0 .658-3.93 3.008-9.24 3.698v-1.958a84.336 84.336 0 004.23-15.778c1.98-11.911 1.12-22.585-.54-30.909-2.22-11.214-5.85-18.17-5.85-18.17l.05-5.555.11-14.488.05-5.985h3.76v5.819h-1.37l.02.166 1.4 14.488.44 4.609c4.72 1.827 6.94 6.896 6.94 11.32z" fill="#BCEBF5"/><path fill-rule="evenodd" clip-rule="evenodd" d="M1046.22 751.373c.04.106.05-.961.05.32 0 1.271-5.2 5.548-20.08 5.637-14.89.089-20.39-4.235-20.39-5.637 0-1.412.19-.722.57-1.058 1.18-2.14 1.84-4.222-.57-6.733h40.47c-1.15 2.399-.97 4.584 0 7.471h-.05z" fill="#237C82"/><path fill-rule="evenodd" clip-rule="evenodd" d="M1006.77 749.712c.73-1.527 1.04-3.05-.02-4.762.6-.425 1.36-.83 2.25-1.201h34.31c1 .412 1.82.862 2.45 1.341-.41 1.431-.36 2.843.02 4.453-3.02 2.325-10.78 5.027-19.63 5.027-8.83 0-16.2-2.619-19.38-4.858z" fill="url(#paint5_linear)"/><path fill-rule="evenodd" clip-rule="evenodd" d="M1078.12 698.7c.01.438.02.875.02 1.31 0 28.842-23.39 52.219-52.22 52.219-28.833 0-52.211-23.377-52.211-52.219 0-.435.003-.872.013-1.31h104.398z" fill="#237C82"/><path fill-rule="evenodd" clip-rule="evenodd" d="M1078.13 699.355c0 .221.01.438.01.652 0 27.638-21.48 50.268-48.65 52.095 24.4-4.146 42.37-26.431 48.64-52.747z" fill="url(#paint6_linear)"/><path fill-rule="evenodd" clip-rule="evenodd" d="M1026.03 708.727c28.81 0 52.31-4.236 52.31-9.429 0-5.197-23.5-9.429-52.31-9.429-28.801 0-52.298 4.235-52.298 9.429 0 5.193 23.497 9.429 52.298 9.429z" fill="#FDFEFE"/><path fill-rule="evenodd" clip-rule="evenodd" d="M1026.03 707.024c26.76 0 48.58-3.472 48.58-7.726 0-4.255-21.82-7.727-48.58-7.727-26.748 0-48.568 3.472-48.568 7.727.003 4.254 21.823 7.726 48.568 7.726z" fill="#EAE9E8"/><path fill-rule="evenodd" clip-rule="evenodd" d="M1066.64 695.06c5.03 1.213 7.97 2.67 7.97 4.238 0 1.929-4.44 3.692-11.78 5.043 2.03-2.73 3.74-5.992 3.81-9.281zm-19.67-2.741c2.9.224 5.63.489 8.18.792-1.9 5.191-6.39 12.975-8.16 13.16-1.93.147-3.93.275-6 .38 2.13-3.446 4.81-8.477 5.98-14.332z" fill="#FDFEFE"/><path d="M1093.5 749.028c1.06 8.362-6.89 15.99-17.18 16.967-10.29.98-19.02-5.059-20.08-13.421-.05-.387-.09-.767-.12-1.137-1.25-13.374 7.21-15.571 17.22-16.523 5.05-.482 9.47-1.345 12.92-.003 3.57 1.389 6.11 5.136 7.24 14.117z" fill="#D72E27"/><path d="M1087.8 740.174c1.2 9.429-5.47 18.046-14.9 19.244-6.89.875-13.34-2.45-16.79-7.979-1.24-13.373 7.21-15.57 17.22-16.522 5.06-.482 9.48-1.345 12.93-.003.77 1.616 1.3 3.382 1.54 5.26z" fill="#E73527"/><path d="M1067.34 740.612c1.17 2.926-1.56 2.373-4.67 3.622-3.12 1.249-2.6 5.085-3.77 2.159s.4-6.308 3.51-7.557c3.12-1.249 3.76-1.147 4.93 1.776z" fill="#fff"/><path d="M1060.79 746.058s-.8-6.289 10.53-6.545c0 0 7.02-.022 6.28 9.142 0 0 3.7-5.204-.9-9.669 0 0 3.68-4.491 10.94 2.319 0 0 1.16-3.855-10.19-6.279 0 0-3.14-2.993 7.67-3.578 0 0-5.42-2.309-11.27 2.536 0 0-1.75 2.396-6.04.579-2.3-.978-4.85-1.249-7.32-.844-1.42.234-2.96.642-4.42 1.342 0 0 11.22-1.741 12.19 2.791.01-.003-10.79.106-7.47 8.206z" fill="#7EB341"/><path d="M1073.94 737.207c.12.655-2.64.336-2.64.336s1.04-4.702-.92-7.222c-.4-.527 2.04-.268 2.04-.268s1.03 4.328 1.52 7.154z" fill="#7EB341"/><path d="M1072.42 730.053c.04.31-.42.632-1 .706-.58.073-1.05-.278-1.08-.588-.04-.31.35-.46.94-.533.58-.074 1.1.105 1.14.415z" fill="#548B30"/><path d="M1522.28 749.661h-102.26l-11.8-119.587h99.9l14.16 119.587z" fill="#7F7F7F"/><path d="M1394.13 749.661l101.8 4.609 12.26-124.196h-99.9l-14.16 119.587z" fill="#237C82"/><path d="M1401.52 736.662l90.03 4.98 10.99-100.762h-88.48l-12.54 95.782z" stroke="#fff" stroke-width=".91" stroke-miterlimit="10"/><path d="M1428.33 651.574c.05-2.437 1.09-3.852 2.52-3.824 1.44.029 2.42 1.489 2.37 3.926-.05 2.472-1.09 3.922-2.53 3.893-1.43-.032-2.41-1.523-2.36-3.995zm4.05.083c.03-1.898-.58-3.038-1.54-3.057-.97-.019-1.63 1.092-1.67 2.99-.04 1.932.58 3.104 1.54 3.123.96.023 1.62-1.124 1.67-3.056zm2.75-1.726l.67.013.05 1.322h.02c.51-.897 1.26-1.434 2.14-1.415.34.006.63.07.92.249l-.2.811c-.32-.134-.5-.194-.87-.201-.71-.016-1.38.396-1.97 1.559l-.07 3.264-.8-.016.11-5.586zm4.94 2.907c.03-1.817 1.08-2.923 2.19-2.9.57.013 1 .284 1.41.741h.01l-.01-1.026.04-2.149.8.016-.16 8.183-.67-.013-.05-.738h-.03c-.4.464-.97.853-1.56.844-1.22-.02-2.01-1.096-1.97-2.958zm3.5 1.361l.06-2.782c-.42-.48-.81-.662-1.22-.668-.81-.016-1.49.821-1.52 2.095-.03 1.332.48 2.137 1.34 2.156.47.01.91-.258 1.34-.801zm2.4-1.262c.04-1.817 1.2-2.897 2.47-2.871 1.35.029 2.13 1.089 2.1 2.664 0 .217-.03.424-.05.575l-3.99-.083.01-.735 3.52.073-.21.262c.02-1.322-.51-1.99-1.38-2.006-.87-.019-1.65.748-1.68 2.14-.02 1.451.75 2.201 1.8 2.223.56.013 1.01-.185 1.45-.498l.28.626c-.48.358-1.09.645-1.84.629-1.42-.032-2.52-1.137-2.48-2.999zm6.62-2.645l.67.013.05 1.322h.02c.52-.897 1.26-1.434 2.14-1.415.35.007.64.071.93.25l-.21.811c-.32-.134-.5-.195-.86-.201-.71-.016-1.39.396-1.98 1.558l-.06 3.265-.81-.016.11-5.587zm11.58-1.718l.8.016-.13 6.724 3.14.063-.01.818-3.95-.08.15-7.541zm7.52 2.881l-2.18-.045.02-.769 2.99.06-.12 5.587-.8-.016.09-4.817zm-.26-2.686c.01-.438.29-.731.65-.722.37.006.64.313.63.747-.01.448-.29.732-.65.722-.38-.006-.64-.297-.63-.747zm3.63 6.838l.39-.623c.53.469 1.17.782 2.03.802.79.015 1.19-.368 1.2-.837.01-.425-.17-.729-1.44-1.064-1.23-.326-1.83-.83-1.82-1.67.02-.898.71-1.572 2-1.546.72.016 1.43.364 1.88.75l-.39.601a2.52 2.52 0 00-1.58-.62c-.79-.016-1.09.358-1.1.783-.01.482.39.699 1.36.958 1.56.434 1.92.901 1.91 1.763-.02.907-.79 1.651-2.13 1.623-.93-.02-1.74-.438-2.31-.92zm7.17-1.29l.05-2.645-1.34-.029.02-.712 1.37-.029.14-1.792.67.013-.03 1.792 2.3.048-.01.77-2.31-.048-.05 2.654c-.02 1 .24 1.524 1.16 1.543.44.009.79-.087 1.13-.23l.16.706c-.43.175-.89.316-1.48.303-1.39-.026-1.81-.965-1.78-2.344z" fill="#fff"/><path d="M1425.16 692.386h12.32l1.26-22.173h-17.9l4.32 22.173z" fill="#237C82"/><path d="M1434.54 692.386h-17.91l4.32-22.173h17.91l-4.32 22.173z" fill="#fff"/><path d="M1428.59 671.392c1.07 0 1.94-1.039 1.94-2.319 0-1.281-.87-2.319-1.94-2.319-1.07 0-1.94 1.038-1.94 2.319 0 1.28.87 2.319 1.94 2.319z" fill="#FFB319"/><path d="M1457.42 705.801h12.31l1.27-22.173h-17.9l4.32 22.173z" fill="#237C82"/><path d="M1466.79 705.801h-17.9l4.32-22.173h17.91l-4.33 22.173z" fill="#fff"/><path d="M1460.85 684.807c1.07 0 1.94-1.039 1.94-2.319 0-1.281-.87-2.319-1.94-2.319-1.07 0-1.94 1.038-1.94 2.319 0 1.28.87 2.319 1.94 2.319z" fill="#FFB319"/></g><defs><linearGradient id="paint0_linear" x1="1981.25" y1="277.655" x2="1298.79" y2="161.395" gradientUnits="userSpaceOnUse"><stop stop-color="#EAFBFF"/><stop offset="1" stop-color="#EAFBFF" stop-opacity="0"/></linearGradient><linearGradient id="paint1_linear" x1="1781.94" y1="728.001" x2="763.772" y2="728" gradientUnits="userSpaceOnUse"><stop stop-color="#FFD174"/><stop offset="1" stop-color="#FFD174" stop-opacity="0"/></linearGradient><linearGradient id="paint2_linear" x1="1311.99" y1="735.39" x2="1208.95" y2="769.863" gradientUnits="userSpaceOnUse"><stop stop-color="#CBE3FF"/><stop offset="1" stop-color="#3983FE"/></linearGradient><linearGradient id="paint3_linear" x1="1197.66" y1="716.056" x2="1144.9" y2="733.711" gradientUnits="userSpaceOnUse"><stop stop-color="#CBE3FF"/><stop offset="1" stop-color="#3983FE"/></linearGradient><linearGradient id="paint4_linear" x1="1446.17" y1="781.999" x2="698.437" y2="777.95" gradientUnits="userSpaceOnUse"><stop stop-color="#1A1A1A"/><stop offset="1" stop-color="#1A1A1A" stop-opacity="0"/></linearGradient><linearGradient id="paint5_linear" x1="1045.78" y1="749.16" x2="1006.74" y2="749.16" gradientUnits="userSpaceOnUse"><stop stop-color="#CBE3FF"/><stop offset="1" stop-color="#3983FE"/></linearGradient><linearGradient id="paint6_linear" x1="1078.14" y1="725.731" x2="1029.49" y2="725.731" gradientUnits="userSpaceOnUse"><stop stop-color="#CBE3FF"/><stop offset="1" stop-color="#3983FE"/></linearGradient><clipPath id="clip0"><path fill="#fff" d="M0 0h1920v785H0z"/></clipPath></defs></svg>