<svg width="29" height="29" fill="none" xmlns="http://www.w3.org/2000/svg"><path d="M10.6 18.684a.31.31 0 01-.21-.075.32.32 0 01-.075-.214v-5.944c0-.084.025-.151.075-.201a.284.284 0 01.21-.088h.52c.082 0 .148.03.197.088a.27.27 0 01.074.2v.427c.445-.56 1.047-.84 1.806-.84.906 0 1.55.384 1.929 1.153a2.21 2.21 0 01.84-.84 2.476 2.476 0 011.237-.313c.676 0 1.228.234 1.657.702.428.468.643 1.145.643 2.032v3.624a.292.292 0 01-.087.214.265.265 0 01-.198.075h-.531a.31.31 0 01-.21-.075.319.319 0 01-.075-.214v-3.511c0-.67-.136-1.146-.408-1.43-.272-.293-.63-.44-1.075-.44-.396 0-.738.151-1.027.452-.28.293-.42.766-.42 1.418v3.511a.292.292 0 01-.087.214.265.265 0 01-.198.075h-.544a.31.31 0 01-.21-.075.32.32 0 01-.074-.214v-3.511c0-.66-.144-1.138-.433-1.43a1.395 1.395 0 00-1.051-.44 1.39 1.39 0 00-1.026.44c-.28.292-.42.765-.42 1.417v3.524a.292.292 0 01-.087.214.265.265 0 01-.198.075H10.6zm10.408-4.39a.266.266 0 01-.198-.075.274.274 0 01-.075-.2v-.264a.32.32 0 01.062-.188c.042-.067.12-.147.235-.239l.57-.413c.436-.31.753-.544.951-.703.198-.167.346-.326.445-.476a.827.827 0 00.161-.49.54.54 0 00-.21-.451.718.718 0 00-.495-.176.906.906 0 00-.433.088.608.608 0 00-.197.163 4.252 4.252 0 00-.124.239.638.638 0 01-.136.188.306.306 0 01-.16.037h-.335c-.148 0-.222-.07-.222-.213 0-.217.074-.422.222-.614a1.57 1.57 0 01.582-.477c.247-.125.515-.188.803-.188.47 0 .85.138 1.138.414.288.267.433.593.433.978 0 .293-.066.552-.198.778a2.512 2.512 0 01-.569.652 16.86 16.86 0 01-1.1.828h1.78c.083 0 .149.025.198.075a.27.27 0 01.074.2v.251c0 .084-.025.15-.074.201a.266.266 0 01-.198.075h-2.93zM4.354 4.436a.5.5 0 00-.708 0L.464 7.617a.5.5 0 00.708.708L4 5.496l2.828 2.829a.5.5 0 10.708-.708L4.354 4.436zm21.473 20.917a.5.5 0 000-.707l-3.182-3.182a.5.5 0 10-.707.707L24.767 25l-2.829 2.828a.5.5 0 10.707.707l3.182-3.182zM3.5 4.79V21h1V4.79h-1zM8 25.5h17.474v-1H8v1zM3.5 21A4.5 4.5 0 008 25.5v-1A3.5 3.5 0 014.5 21h-1z" fill="#B13957"/><path d="M28 17.421V3a2 2 0 00-2-2H12.842" stroke="#B13957" stroke-linecap="round"/></svg>