<svg width="23" height="24" fill="none" xmlns="http://www.w3.org/2000/svg"><path d="M11.04.96C4.948.96 0 5.908 0 12c0 6.091 4.948 11.04 11.04 11.04 6.091 0 11.04-4.948 11.04-11.04C22.08 5.908 17.132.96 11.04.96zm0 .96c5.573 0 10.08 4.507 10.08 10.08s-4.507 10.08-10.08 10.08A10.073 10.073 0 01.96 12c0-5.573 4.507-10.08 10.08-10.08zm-.007 1.433a.48.48 0 00-.473.487v6.803a1.44 1.44 0 00-.818 1.977L6.86 15.5a.48.48 0 10.678.68l2.881-2.882a1.44 1.44 0 001.638-.28 1.44 1.44 0 00-.538-2.374V3.84a.48.48 0 00-.487-.487z" fill="#B13957"/></svg>