<svg width="40" height="40" fill="none" xmlns="http://www.w3.org/2000/svg"><rect width="40" height="40" rx="2" fill="#FF20A7"/><rect width="40" height="40" rx="2" fill="url(#paint0_radial)"/><rect width="40" height="40" rx="2" fill="url(#paint1_radial)"/><path fill-rule="evenodd" clip-rule="evenodd" d="M25.518 32.482H14.749a7.18 7.18 0 01-7.179-7.178V14.176A7.178 7.178 0 0114.75 7h10.768a7.18 7.18 0 017.18 7.178v11.127a7.177 7.177 0 01-7.18 7.178zm4.846-18.843a4.486 4.486 0 00-4.487-4.487H14.211a4.487 4.487 0 00-4.487 4.487v11.665a4.486 4.486 0 004.487 4.486h11.666a4.487 4.487 0 004.487-4.486V13.639zm-3.59.718a1.615 1.615 0 110-3.23 1.615 1.615 0 010 3.23zM20.044 26.2a6.552 6.552 0 01-4.632-11.182A6.55 6.55 0 1120.044 26.2zm0-10.768a4.218 4.218 0 100 8.437 4.218 4.218 0 000-8.437z" fill="#fff"/><defs><radialGradient id="paint0_radial" cx="0" cy="0" r="1" gradientUnits="userSpaceOnUse" gradientTransform="rotate(106.302 -9.52 23.122) scale(27.61)"><stop stop-color="#FFFCB2"/><stop offset=".234" stop-color="#FFB21C" stop-opacity=".818"/><stop offset="1" stop-color="#FF24BE" stop-opacity="0"/></radialGradient><radialGradient id="paint1_radial" cx="0" cy="0" r="1" gradientUnits="userSpaceOnUse" gradientTransform="matrix(4 15.25004 -35.76198 9.38018 9.5 0)"><stop stop-color="#2E62DF"/><stop offset="1" stop-color="#6E48D8" stop-opacity="0"/></radialGradient></defs></svg>