<svg width="17" height="24" fill="none" xmlns="http://www.w3.org/2000/svg"><path d="M8 0C3.58 0 0 3.58 0 8c0 3.655 1.93 7.583 3.828 10.627 1.899 3.043 3.798 5.203 3.798 5.203a.5.5 0 00.75 0s1.9-2.205 3.797-5.266C14.069 15.504 16 11.584 16 8.001 16 3.581 12.42 0 8 0zm0 1a6.982 6.982 0 017.001 7c0 3.218-1.818 7.042-3.672 10.033-1.553 2.506-2.867 4.12-3.328 4.672-.465-.549-1.78-2.127-3.329-4.61C2.821 15.126 1 11.295 1 8.001c0-3.882 3.12-7 7-7zm0 4a3.507 3.507 0 00-3.5 3.5A3.507 3.507 0 008 12.001c1.929 0 3.5-1.572 3.5-3.5S9.93 5 8 5zm0 1c1.387 0 2.5 1.114 2.5 2.5A2.49 2.49 0 018 11a2.493 2.493 0 01-2.5-2.5C5.5 7.115 6.614 6 8 6z" fill="#B13957"/></svg>