<svg width="40" height="40" fill="none" xmlns="http://www.w3.org/2000/svg"><path d="M40 34.444C40 37.556 37.556 40 34.444 40H5.556C2.444 40 0 37.556 0 34.444V5.556C0 2.444 2.444 0 5.556 0h28.888C37.556 0 40 2.444 40 5.556v28.888z" fill="#E9E9E9"/><path d="M23.222 27.111c1.667-.333 3.223-1 4.556-1.889 1.111-.667 1.444-2.111.778-3.222-.667-1.111-2.111-1.445-3.223-.778-3.222 2-7.444 2-10.666 0-1.111-.667-2.556-.333-3.222.778-.667 1.111-.334 2.555.777 3.222 1.445.889 3 1.556 4.556 1.889l-4.444 4.444c-.89.89-.89 2.334 0 3.334.444.444 1 .666 1.666.666.556 0 1.222-.222 1.667-.666L20 30.555l4.334 4.334c.888.889 2.333.889 3.333 0 .889-.89.889-2.334 0-3.334l-4.445-4.444zM20 4.444a7.73 7.73 0 00-7.778 7.778A7.73 7.73 0 0020 20a7.73 7.73 0 007.778-7.778A7.73 7.73 0 0020 4.444zm0 11.111c-1.889 0-3.333-1.444-3.333-3.333 0-1.889 1.444-3.333 3.333-3.333 1.889 0 3.334 1.444 3.334 3.333 0 1.889-1.445 3.333-3.334 3.333z" fill="#B9B9B9"/></svg>