<svg width="40" height="40" fill="none" xmlns="http://www.w3.org/2000/svg"><rect width="40" height="40" rx="2" fill="#35AEE2"/><path fill-rule="evenodd" clip-rule="evenodd" d="M16.358 25.523a2 2 0 011.962-1.86l.516-.008c1.859-.03 2.75 2.27 1.357 3.5l-.55.485c-1.342 1.184-3.445.145-3.319-1.64l.034-.477z" fill="#A9CAE1"/><path fill-rule="evenodd" clip-rule="evenodd" d="M32.669 7.618l.024-.007c.74-.233 1.183.323 1.263.947.018.137-.001.275-.03.41L29.35 30.764c-.028.135-.033.276-.076.407-.195.596-1.204.986-1.744.689l-11.005-7.92a2 2 0 00-.355-.203l-3.825-1.703-6.816-2.239a1.84 1.84 0 01-.341-.15c-.523-.3-.906-.622-.484-1.44.462-.893 27.56-10.445 27.965-10.588z" fill="#fff"/><path fill-rule="evenodd" clip-rule="evenodd" d="M29.178 11.828c.32.358-2.693 2.918-5.697 5.614a708.23 708.23 0 00-6.283 5.717c-.374.344-.6.817-.637 1.323l-.377 5.188c-.051.715-.597 1.13-.991.531-.404-.611-.927-2.048-1.165-2.934-.32-1.19-.709-2.776-.976-3.889a1.971 1.971 0 01.822-2.107c3.663-2.446 14.903-9.892 15.304-9.443z" fill="#C9DAEA"/></svg>