<svg width="40" height="40" fill="none" xmlns="http://www.w3.org/2000/svg"><path fill="#55ABED" d="M0 0h40v40H0z"/><path fill-rule="evenodd" clip-rule="evenodd" d="M31.391 13.44a9.754 9.754 0 01-2.726.718c.987-.564 1.825-1.451 2.181-2.512a10.15 10.15 0 01-3.09 1.077 4.798 4.798 0 00-1.578-1.065 4.852 4.852 0 00-1.875-.37c-2.632 0-4.725 1.984-4.725 4.486 0 .357-.013.747 0 1.076-3.959-.188-7.46-1.918-9.815-4.666a3.854 3.854 0 00-.545 2.154c0 1.577.716 2.953 2 3.768a5.025 5.025 0 01-2.182-.538v.18c0 2.198 1.816 3.886 3.999 4.306a5.116 5.116 0 01-1.273.18 5.492 5.492 0 01-.908 0c.609 1.803 2.277 3.017 4.362 3.05A9.57 9.57 0 019.4 27.26c-.39 0-.902-.144-1.273-.18 2.109 1.284 4.76 2.154 7.452 2.154 8.77 0 13.45-6.928 13.45-12.921 0-.198.009-.344 0-.539a9.321 9.321 0 002.362-2.332z" fill="#fff"/></svg>