<svg width="20" height="21" fill="none" xmlns="http://www.w3.org/2000/svg"><path d="M6.602 16.704h1.165a2.136 2.136 0 004.272 0h1.165a3.301 3.301 0 11-6.602 0zm13.204-1.748v.39c0 .752-.608 1.358-1.36 1.358H1.36A1.36 1.36 0 010 15.345v-.39a2.526 2.526 0 012.33-2.515V7.577A7.572 7.572 0 019.903.005a7.572 7.572 0 017.573 7.572v4.863a2.523 2.523 0 012.33 2.516zm-2.528-1.359a.97.97 0 01-.967-.968V7.577A6.407 6.407 0 009.903 1.17a6.407 6.407 0 00-6.408 6.407v5.052a.97.97 0 01-.967.968c-.753 0-1.363.609-1.363 1.359v.39c0 .106.087.193.195.193h17.086c.11 0 .195-.085.195-.194v-.39a1.36 1.36 0 00-1.363-1.358z" fill="#272727"/></svg>