<svg width="24" height="22" fill="none" xmlns="http://www.w3.org/2000/svg"><path d="M11.926 20.942h0l-9.302-9.655.072-.07-.072.07C.327 8.9.324 5.073 2.624 2.69m9.302 18.252L2.624 2.69m9.302 18.252a.534.534 0 00.77 0h0l4.65-4.82.01-.01 4.64-4.812c2.301-2.383 2.301-6.213 0-8.597l-.071.07.072-.07a5.774 5.774 0 00-8.357 0s0 0 0 0L12.31 4.07l-1.328-1.38h0a5.785 5.785 0 00-8.358 0m9.302 18.252L2.624 2.69m9.301 2.531h0a.535.535 0 00.77 0h0l1.714-1.78c1.9-1.969 4.919-1.969 6.818 0 1.902 1.97 1.902 5.152 0 7.122l-4.494 4.658-.002.002-4.42 4.58-8.917-9.253c-1.9-1.973-1.902-5.153 0-7.123h0a4.712 4.712 0 013.41-1.465c1.228 0 2.458.48 3.408 1.465 0 0 0 0 0 0l1.713 1.794z" fill="#272727" stroke="#272727" stroke-width=".2"/></svg>