<svg width="24" height="21" fill="none" xmlns="http://www.w3.org/2000/svg"><path d="M22.5 16.88a.625.625 0 01-.625.625H12.5v1.25h9.375a1.875 1.875 0 001.875-1.875V4.38H22.5v12.5z" fill="#272727"/><path d="M.625 20.005a.637.637 0 00.387-.138l6.013-4.725a.587.587 0 01.387-.137h10.713A1.875 1.875 0 0020 13.13V1.88A1.875 1.875 0 0018.125.005H1.875A1.875 1.875 0 000 1.88v17.5a.625.625 0 00.35.562c.087.039.18.06.275.063zm.625-8.488V1.88a.625.625 0 01.625-.625h16.25a.625.625 0 01.625.625v11.25a.625.625 0 01-.625.625H7.412a1.85 1.85 0 00-1.162.4l-5 3.937v-6.575z" fill="#272727"/><path d="M5 8.755a1.25 1.25 0 100-2.5 1.25 1.25 0 000 2.5zm5 0a1.25 1.25 0 100-2.5 1.25 1.25 0 000 2.5zm5 0a1.25 1.25 0 100-2.5 1.25 1.25 0 000 2.5z" fill="#272727"/></svg>