<svg width="20" height="22" fill="none" xmlns="http://www.w3.org/2000/svg"><path d="M.9 20.543a.555.555 0 00.16.397h0a.554.554 0 00.79 0l-.072-.07 17.411-.15a.453.453 0 00.033-.176h.1s0 0 0 0c0-4.12-2.713-7.615-6.448-8.79a5.784 5.784 0 003.014-5.073A5.782 5.782 0 0010.112.905 5.782 5.782 0 004.336 6.68a5.784 5.784 0 003.015 5.073C3.615 12.93.9 16.423.9 20.544zm0 0s0 0 0 0l.1.001H.9s0 0 0 0zm9.212-18.53a4.66 4.66 0 014.667 4.668 4.661 4.661 0 01-4.33 4.657 9.362 9.362 0 00-.673 0 4.661 4.661 0 01-4.331-4.657 4.66 4.66 0 014.667-4.667z" fill="#B03A57" stroke="#B03A57" stroke-width=".2"/></svg>