<svg width="23" height="22" fill="none" xmlns="http://www.w3.org/2000/svg"><path d="M18.342 21.154h-.001a.424.424 0 01-.238-.052l.24.052zm0 0a.422.422 0 00.297-.162.407.407 0 00.076-.329h0l-1.459-6.9 5.352-4.755h.001a.409.409 0 00.115-.43l-.142.047.142-.048a.41.41 0 00-.348-.279h0l-7.21-.787-2.99-6.419h0l-.001-.001a.412.412 0 00-.378-.236.423.423 0 00-.377.236v.001L8.428 7.511l-7.21.787h0a.421.421 0 00-.348.28.403.403 0 00.115.43h0l5.352 4.755-1.458 6.9v.001a.403.403 0 00.166.412.423.423 0 00.445.026h0l6.306-3.486 6.306 3.485.24.053zm-.63-1.203L12 16.793h0a.422.422 0 00-.405 0h-.001l-5.71 3.158 1.32-6.25v-.002a.403.403 0 00-.128-.39h0L2.234 9.011l6.52-.711h0a.421.421 0 00.33-.235h0l2.713-5.819 2.713 5.819h0a.412.412 0 00.33.235h.002l6.518.711-4.84 4.296h-.001a.41.41 0 00-.128.391v.001l1.32 6.251z" fill="#272727" stroke="#272727" stroke-width=".3"/></svg>